NotoSansSaurashtra-Regular.ufo
<glyph name="uniA880" format="2">
  <advance width="377"/>
  <unicode hex="A880"/>
  <outline>
    <contour>
      <point x="189" y="364" type="curve" smooth="yes"/>
      <point x="265" y="364"/>
      <point x="314" y="413"/>
      <point x="314" y="492" type="curve" smooth="yes"/>
      <point x="314" y="572"/>
      <point x="266" y="619"/>
      <point x="189" y="619" type="curve" smooth="yes"/>
      <point x="110" y="619"/>
      <point x="64" y="571"/>
      <point x="64" y="492" type="curve" smooth="yes"/>
      <point x="64" y="413"/>
      <point x="112" y="364"/>
    </contour>
    <contour>
      <point x="188" y="428" type="curve" smooth="yes"/>
      <point x="151" y="428"/>
      <point x="132" y="449"/>
      <point x="132" y="491" type="curve" smooth="yes"/>
      <point x="132" y="534"/>
      <point x="149" y="552"/>
      <point x="188" y="552" type="curve" smooth="yes"/>
      <point x="228" y="552"/>
      <point x="245" y="534"/>
      <point x="245" y="491" type="curve" smooth="yes"/>
      <point x="245" y="449"/>
      <point x="226" y="428"/>
    </contour>
  </outline>
</glyph>
<glyph name="uniA881" format="2">
  <advance width="386"/>
  <unicode hex="A881"/>
  <outline>
    <contour>
      <point x="189" y="364" type="curve" smooth="yes"/>
      <point x="265" y="364"/>
      <point x="314" y="413"/>
      <point x="314" y="492" type="curve" smooth="yes"/>
      <point x="314" y="572"/>
      <point x="266" y="619"/>
      <point x="189" y="619" type="curve" smooth="yes"/>
      <point x="110" y="619"/>
      <point x="64" y="571"/>
      <point x="64" y="492" type="curve" smooth="yes"/>
      <point x="64" y="413"/>
      <point x="112" y="364"/>
    </contour>
    <contour>
      <point x="189" y="45" type="curve" smooth="yes"/>
      <point x="265" y="45"/>
      <point x="314" y="93"/>
      <point x="314" y="173" type="curve" smooth="yes"/>
      <point x="314" y="252"/>
      <point x="266" y="300"/>
      <point x="189" y="300" type="curve" smooth="yes"/>
      <point x="110" y="300"/>
      <point x="64" y="250"/>
      <point x="64" y="173" type="curve" smooth="yes"/>
      <point x="64" y="93"/>
      <point x="113" y="45"/>
    </contour>
    <contour>
      <point x="188" y="109" type="curve" smooth="yes"/>
      <point x="151" y="109"/>
      <point x="132" y="130"/>
      <point x="132" y="172" type="curve" smooth="yes"/>
      <point x="132" y="215"/>
      <point x="149" y="233"/>
      <point x="188" y="233" type="curve" smooth="yes"/>
      <point x="228" y="233"/>
      <point x="245" y="215"/>
      <point x="245" y="172" type="curve" smooth="yes"/>
      <point x="245" y="130"/>
      <point x="226" y="109"/>
    </contour>
    <contour>
      <point x="188" y="428" type="curve" smooth="yes"/>
      <point x="151" y="428"/>
      <point x="132" y="449"/>
      <point x="132" y="491" type="curve" smooth="yes"/>
      <point x="132" y="534"/>
      <point x="149" y="552"/>
      <point x="188" y="552" type="curve" smooth="yes"/>
      <point x="228" y="552"/>
      <point x="245" y="534"/>
      <point x="245" y="491" type="curve" smooth="yes"/>
      <point x="245" y="449"/>
      <point x="226" y="428"/>
    </contour>
  </outline>
</glyph>
<glyph name="uniA885" format="2">
  <advance width="707"/>
  <unicode hex="A885"/>
  <outline>
    <contour>
      <point x="339" y="-10" type="curve" smooth="yes"/>
      <point x="518" y="-10"/>
      <point x="650" y="75"/>
      <point x="650" y="214" type="curve" smooth="yes"/>
      <point x="650" y="288"/>
      <point x="620" y="331"/>
      <point x="562" y="397" type="curve"/>
      <point x="628" y="446"/>
      <point x="661" y="496"/>
      <point x="661" y="545" type="curve" smooth="yes"/>
      <point x="661" y="622"/>
      <point x="605" y="675"/>
      <point x="526" y="675" type="curve" smooth="yes"/>
      <point x="447" y="675"/>
      <point x="394" y="632"/>
      <point x="394" y="561" type="curve" smooth="yes"/>
      <point x="394" y="504"/>
      <point x="421" y="454"/>
      <point x="486" y="383" type="curve" smooth="yes"/>
      <point x="539" y="325"/>
      <point x="573" y="287"/>
      <point x="573" y="224" type="curve" smooth="yes"/>
      <point x="573" y="130"/>
      <point x="470" y="71"/>
      <point x="339" y="71" type="curve" smooth="yes"/>
      <point x="199" y="71"/>
      <point x="119" y="121"/>
      <point x="119" y="209" type="curve" smooth="yes"/>
      <point x="119" y="292"/>
      <point x="178" y="331"/>
      <point x="331" y="331" type="curve"/>
      <point x="331" y="405" type="line"/>
      <point x="208" y="405"/>
      <point x="146" y="446"/>
      <point x="146" y="528" type="curve" smooth="yes"/>
      <point x="146" y="571"/>
      <point x="175" y="596"/>
      <point x="218" y="596" type="curve" smooth="yes"/>
      <point x="257" y="596"/>
      <point x="277" y="576"/>
      <point x="277" y="537" type="curve" smooth="yes"/>
      <point x="277" y="533" type="line"/>
      <point x="352" y="533" type="line"/>
      <point x="352" y="540" type="line" smooth="yes"/>
      <point x="352" y="625"/>
      <point x="301" y="675"/>
      <point x="214" y="675" type="curve" smooth="yes"/>
      <point x="129" y="675"/>
      <point x="68" y="615"/>
      <point x="68" y="528" type="curve" smooth="yes"/>
      <point x="68" y="448"/>
      <point x="120" y="388"/>
      <point x="209" y="371" type="curve"/>
      <point x="102" y="364"/>
      <point x="44" y="304"/>
      <point x="44" y="205" type="curve" smooth="yes"/>
      <point x="44" y="68"/>
      <point x="155" y="-10"/>
    </contour>
    <contour>
      <point x="521" y="450" type="curve"/>
      <point x="488" y="485"/>
      <point x="472" y="517"/>
      <point x="472" y="544" type="curve" smooth="yes"/>
      <point x="472" y="577"/>
      <point x="493" y="598"/>
      <point x="529" y="598" type="curve" smooth="yes"/>
      <point x="561" y="598"/>
      <point x="585" y="577"/>
      <point x="585" y="546" type="curve" smooth="yes"/>
      <point x="585" y="514"/>
      <point x="574" y="493"/>
    </contour>
  </outline>
</glyph>
<glyph name="uniA886" format="2">
  <advance width="716"/>
  <unicode hex="A886"/>
  <outline>
    <contour>
      <point x="343" y="-9" type="curve" smooth="yes"/>
      <point x="514" y="-9"/>
      <point x="635" y="74"/>
      <point x="635" y="211" type="curve" smooth="yes"/>
      <point x="635" y="320"/>
      <point x="571" y="389"/>
      <point x="457" y="389" type="curve" smooth="yes"/>
      <point x="449" y="389"/>
      <point x="442" y="388"/>
      <point x="434" y="388" type="curve"/>
      <point x="473" y="409"/>
      <point x="495" y="448"/>
      <point x="495" y="503" type="curve" smooth="yes"/>
      <point x="495" y="518"/>
      <point x="493" y="532"/>
      <point x="490" y="546" type="curve"/>
      <point x="504" y="548"/>
      <point x="518" y="549"/>
      <point x="533" y="549" type="curve" smooth="yes"/>
      <point x="592" y="549"/>
      <point x="615" y="534"/>
      <point x="615" y="505" type="curve" smooth="yes"/>
      <point x="615" y="487"/>
      <point x="601" y="474"/>
      <point x="572" y="465" type="curve"/>
      <point x="599" y="389" type="line"/>
      <point x="658" y="408"/>
      <point x="687" y="442"/>
      <point x="687" y="493" type="curve" smooth="yes"/>
      <point x="687" y="572"/>
      <point x="630" y="612"/>
      <point x="529" y="612" type="curve" smooth="yes"/>
      <point x="507" y="612"/>
      <point x="485" y="611"/>
      <point x="463" y="609" type="curve"/>
      <point x="414" y="654"/>
      <point x="352" y="677"/>
      <point x="277" y="677" type="curve" smooth="yes"/>
      <point x="229" y="677"/>
      <point x="170" y="666"/>
      <point x="127" y="651" type="curve"/>
      <point x="151" y="579" type="line"/>
      <point x="200" y="599"/>
      <point x="247" y="609"/>
      <point x="294" y="609" type="curve" smooth="yes"/>
      <point x="323" y="609"/>
      <point x="351" y="604"/>
      <point x="378" y="594" type="curve"/>
      <point x="271" y="575"/>
      <point x="187" y="537"/>
      <point x="124" y="480" type="curve" smooth="yes"/>
      <point x="62" y="424"/>
      <point x="31" y="355"/>
      <point x="31" y="272" type="curve" smooth="yes"/>
      <point x="31" y="95"/>
      <point x="164" y="-9"/>
    </contour>
    <contour>
      <point x="338" y="71" type="curve" smooth="yes"/>
      <point x="196" y="71"/>
      <point x="105" y="148"/>
      <point x="105" y="272" type="curve" smooth="yes"/>
      <point x="105" y="411"/>
      <point x="221" y="508"/>
      <point x="421" y="539" type="curve"/>
      <point x="424" y="530"/>
      <point x="425" y="519"/>
      <point x="425" y="504" type="curve" smooth="yes"/>
      <point x="425" y="445"/>
      <point x="391" y="406"/>
      <point x="303" y="382" type="curve"/>
      <point x="324" y="309" type="line"/>
      <point x="355" y="320"/>
      <point x="398" y="328"/>
      <point x="425" y="328" type="curve" smooth="yes"/>
      <point x="474" y="328"/>
      <point x="507" y="321"/>
      <point x="529" y="304" type="curve" smooth="yes"/>
      <point x="552" y="286"/>
      <point x="563" y="251"/>
      <point x="563" y="211" type="curve" smooth="yes"/>
      <point x="563" y="120"/>
      <point x="446" y="71"/>
    </contour>
  </outline>
</glyph>
<glyph name="uniA887" format="2">
  <advance width="864"/>
  <unicode hex="A887"/>
  <outline>
    <contour>
      <point x="357" y="-10" type="curve" smooth="yes"/>
      <point x="507" y="-10"/>
      <point x="647" y="64"/>
      <point x="647" y="209" type="curve" smooth="yes"/>
      <point x="647" y="324"/>
      <point x="582" y="393"/>
      <point x="469" y="393" type="curve" smooth="yes"/>
      <point x="460" y="393"/>
      <point x="451" y="392"/>
      <point x="442" y="391" type="curve"/>
      <point x="479" y="414"/>
      <point x="501" y="455"/>
      <point x="501" y="506" type="curve" smooth="yes"/>
      <point x="501" y="521"/>
      <point x="499" y="536"/>
      <point x="496" y="550" type="curve"/>
      <point x="510" y="551"/>
      <point x="524" y="552"/>
      <point x="538" y="552" type="curve" smooth="yes"/>
      <point x="678" y="551"/>
      <point x="731" y="486"/>
      <point x="731" y="323" type="curve" smooth="yes"/>
      <point x="731" y="0" type="line"/>
      <point x="812" y="0" type="line"/>
      <point x="812" y="323" type="line" smooth="yes"/>
      <point x="812" y="528"/>
      <point x="723" y="624"/>
      <point x="532" y="624" type="curve" smooth="yes"/>
      <point x="516" y="624"/>
      <point x="493" y="623"/>
      <point x="464" y="621" type="curve"/>
      <point x="416" y="660"/>
      <point x="361" y="677"/>
      <point x="285" y="677" type="curve" smooth="yes"/>
      <point x="238" y="677"/>
      <point x="179" y="666"/>
      <point x="138" y="650" type="curve"/>
      <point x="161" y="580" type="line"/>
      <point x="212" y="600"/>
      <point x="260" y="610"/>
      <point x="305" y="610" type="curve" smooth="yes"/>
      <point x="332" y="610"/>
      <point x="357" y="606"/>
      <point x="380" y="599" type="curve"/>
      <point x="190" y="556"/>
      <point x="51" y="436"/>
      <point x="51" y="254" type="curve" smooth="yes"/>
      <point x="51" y="84"/>
      <point x="183" y="-10"/>
    </contour>
    <contour>
      <point x="357" y="71" type="curve" smooth="yes"/>
      <point x="210" y="71"/>
      <point x="128" y="139"/>
      <point x="128" y="255" type="curve" smooth="yes"/>
      <point x="128" y="408"/>
      <point x="264" y="517"/>
      <point x="423" y="540" type="curve"/>
      <point x="427" y="528"/>
      <point x="429" y="517"/>
      <point x="429" y="507" type="curve" smooth="yes"/>
      <point x="429" y="443"/>
      <point x="391" y="407"/>
      <point x="310" y="386" type="curve"/>
      <point x="335" y="312" type="line"/>
      <point x="362" y="321"/>
      <point x="412" y="333"/>
      <point x="441" y="333" type="curve" smooth="yes"/>
      <point x="534" y="333"/>
      <point x="574" y="293"/>
      <point x="574" y="217" type="curve" smooth="yes"/>
      <point x="574" y="132"/>
      <point x="477" y="71"/>
    </contour>
  </outline>
</glyph>
<glyph name="uniA888" format="2">
  <advance width="830"/>
  <unicode hex="A888"/>
  <outline>
    <contour>
      <point x="326" y="-9" type="curve" smooth="yes"/>
      <point x="631" y="-9"/>
      <point x="767" y="127"/>
      <point x="767" y="479" type="curve" smooth="yes"/>
      <point x="767" y="529"/>
      <point x="763" y="591"/>
      <point x="756" y="665" type="curve"/>
      <point x="682" y="665" type="line"/>
      <point x="687" y="602"/>
      <point x="693" y="499"/>
      <point x="693" y="480" type="curve" smooth="yes"/>
      <point x="693" y="183"/>
      <point x="569" y="70"/>
      <point x="324" y="70" type="curve" smooth="yes"/>
      <point x="183" y="70"/>
      <point x="122" y="105"/>
      <point x="122" y="181" type="curve" smooth="yes"/>
      <point x="122" y="242"/>
      <point x="161" y="266"/>
      <point x="270" y="266" type="curve" smooth="yes"/>
      <point x="383" y="266" type="line" smooth="yes"/>
      <point x="568" y="266"/>
      <point x="634" y="332"/>
      <point x="634" y="514" type="curve" smooth="yes"/>
      <point x="634" y="609"/>
      <point x="594" y="673"/>
      <point x="519" y="673" type="curve" smooth="yes"/>
      <point x="475" y="673"/>
      <point x="435" y="645"/>
      <point x="386" y="584" type="curve" smooth="yes"/>
      <point x="333" y="519"/>
      <point x="293" y="476"/>
      <point x="269" y="457" type="curve" smooth="yes"/>
      <point x="245" y="438"/>
      <point x="220" y="428"/>
      <point x="195" y="428" type="curve" smooth="yes"/>
      <point x="138" y="428"/>
      <point x="109" y="461"/>
      <point x="109" y="528" type="curve" smooth="yes"/>
      <point x="109" y="573"/>
      <point x="130" y="596"/>
      <point x="169" y="596" type="curve" smooth="yes"/>
      <point x="209" y="596"/>
      <point x="218" y="574"/>
      <point x="218" y="541" type="curve" smooth="yes"/>
      <point x="218" y="531" type="line"/>
      <point x="290" y="531" type="line"/>
      <point x="290" y="555" type="line" smooth="yes"/>
      <point x="290" y="628"/>
      <point x="242" y="669"/>
      <point x="169" y="669" type="curve" smooth="yes"/>
      <point x="90" y="669"/>
      <point x="35" y="614"/>
      <point x="35" y="529" type="curve" smooth="yes"/>
      <point x="35" y="425"/>
      <point x="91" y="365"/>
      <point x="194" y="365" type="curve" smooth="yes"/>
      <point x="247" y="365"/>
      <point x="285" y="383"/>
      <point x="325" y="415" type="curve" smooth="yes"/>
      <point x="344" y="430"/>
      <point x="375" y="466"/>
      <point x="416" y="519" type="curve" smooth="yes"/>
      <point x="455" y="570"/>
      <point x="480" y="594"/>
      <point x="507" y="594" type="curve" smooth="yes"/>
      <point x="543" y="594"/>
      <point x="560" y="572"/>
      <point x="560" y="505" type="curve" smooth="yes"/>
      <point x="560" y="376"/>
      <point x="505" y="330"/>
      <point x="369" y="330" type="curve" smooth="yes"/>
      <point x="250" y="330" type="line" smooth="yes"/>
      <point x="164" y="330"/>
      <point x="123" y="317"/>
      <point x="93" y="297" type="curve" smooth="yes"/>
      <point x="57" y="273"/>
      <point x="48" y="215"/>
      <point x="48" y="182" type="curve" smooth="yes"/>
      <point x="48" y="58"/>
      <point x="142" y="-9"/>
    </contour>
  </outline>
</glyph>
<glyph name="uniA88C" format="2">
  <advance width="684"/>
  <unicode hex="A88C"/>
  <outline>
    <contour>
      <point x="320" y="-10" type="curve" smooth="yes"/>
      <point x="440" y="-10"/>
      <point x="515" y="45"/>
      <point x="515" y="134" type="curve" smooth="yes"/>
      <point x="515" y="143"/>
      <point x="513" y="161"/>
      <point x="508" y="186" type="curve"/>
      <point x="597" y="215"/>
      <point x="640" y="275"/>
      <point x="640" y="348" type="curve" smooth="yes"/>
      <point x="640" y="422"/>
      <point x="584" y="472"/>
      <point x="515" y="472" type="curve" smooth="yes"/>
      <point x="438" y="472"/>
      <point x="388" y="433"/>
      <point x="388" y="364" type="curve" smooth="yes"/>
      <point x="388" y="324"/>
      <point x="401" y="283"/>
      <point x="416" y="243" type="curve"/>
      <point x="376" y="244"/>
      <point x="360" y="250"/>
      <point x="345" y="261" type="curve" smooth="yes"/>
      <point x="325" y="275"/>
      <point x="319" y="326"/>
      <point x="319" y="374" type="curve" smooth="yes"/>
      <point x="319" y="466" type="line"/>
      <point x="238" y="460" type="line"/>
      <point x="238" y="363" type="line" smooth="yes"/>
      <point x="238" y="300"/>
      <point x="249" y="232"/>
      <point x="301" y="202" type="curve" smooth="yes"/>
      <point x="331" y="185"/>
      <point x="372" y="177"/>
      <point x="433" y="177" type="curve"/>
      <point x="436" y="163"/>
      <point x="438" y="150"/>
      <point x="438" y="138" type="curve" smooth="yes"/>
      <point x="438" y="94"/>
      <point x="393" y="68"/>
      <point x="316" y="68" type="curve" smooth="yes"/>
      <point x="190" y="68"/>
      <point x="113" y="175"/>
      <point x="113" y="332" type="curve" smooth="yes"/>
      <point x="113" y="501"/>
      <point x="203" y="603"/>
      <point x="362" y="603" type="curve" smooth="yes"/>
      <point x="437" y="603"/>
      <point x="512" y="571"/>
      <point x="572" y="506" type="curve"/>
      <point x="624" y="554" type="line"/>
      <point x="552" y="634"/>
      <point x="456" y="677"/>
      <point x="355" y="677" type="curve" smooth="yes"/>
      <point x="161" y="677"/>
      <point x="40" y="550"/>
      <point x="40" y="331" type="curve" smooth="yes"/>
      <point x="40" y="129"/>
      <point x="146" y="-10"/>
    </contour>
    <contour>
      <point x="488" y="252" type="curve"/>
      <point x="473" y="299"/>
      <point x="464" y="327"/>
      <point x="464" y="354" type="curve" smooth="yes"/>
      <point x="464" y="385"/>
      <point x="484" y="402"/>
      <point x="517" y="402" type="curve" smooth="yes"/>
      <point x="549" y="402"/>
      <point x="565" y="384"/>
      <point x="565" y="348" type="curve" smooth="yes"/>
      <point x="565" y="308"/>
      <point x="535" y="271"/>
    </contour>
  </outline>
</glyph>
<glyph name="uniA88D" format="2">
  <advance width="841"/>
  <unicode hex="A88D"/>
  <outline>
    <contour>
      <point x="305" y="-11" type="curve" smooth="yes"/>
      <point x="416" y="-11"/>
      <point x="496" y="51"/>
      <point x="496" y="152" type="curve" smooth="yes"/>
      <point x="496" y="162"/>
      <point x="495" y="173"/>
      <point x="493" y="186" type="curve"/>
      <point x="577" y="211"/>
      <point x="630" y="273"/>
      <point x="630" y="348" type="curve" smooth="yes"/>
      <point x="630" y="424"/>
      <point x="574" y="471"/>
      <point x="506" y="471" type="curve" smooth="yes"/>
      <point x="427" y="471"/>
      <point x="379" y="432"/>
      <point x="379" y="364" type="curve" smooth="yes"/>
      <point x="379" y="324"/>
      <point x="393" y="283"/>
      <point x="408" y="243" type="curve"/>
      <point x="361" y="245"/>
      <point x="340" y="250"/>
      <point x="325" y="273" type="curve" smooth="yes"/>
      <point x="313" y="291"/>
      <point x="309" y="331"/>
      <point x="309" y="374" type="curve" smooth="yes"/>
      <point x="309" y="466" type="line"/>
      <point x="230" y="460" type="line"/>
      <point x="230" y="355" type="line" smooth="yes"/>
      <point x="230" y="292"/>
      <point x="244" y="246"/>
      <point x="272" y="218" type="curve" smooth="yes"/>
      <point x="300" y="190"/>
      <point x="342" y="177"/>
      <point x="425" y="177" type="curve"/>
      <point x="426" y="170"/>
      <point x="426" y="164"/>
      <point x="426" y="157" type="curve" smooth="yes"/>
      <point x="426" y="102"/>
      <point x="374" y="67"/>
      <point x="305" y="67" type="curve" smooth="yes"/>
      <point x="196" y="67"/>
      <point x="128" y="151"/>
      <point x="128" y="276" type="curve" smooth="yes"/>
      <point x="128" y="480"/>
      <point x="256" y="605"/>
      <point x="456" y="605" type="curve" smooth="yes"/>
      <point x="607" y="605"/>
      <point x="687" y="519"/>
      <point x="687" y="359" type="curve" smooth="yes"/>
      <point x="687" y="0" type="line"/>
      <point x="768" y="0" type="line"/>
      <point x="768" y="359" type="line" smooth="yes"/>
      <point x="768" y="563"/>
      <point x="653" y="681"/>
      <point x="458" y="681" type="curve" smooth="yes"/>
      <point x="227" y="681"/>
      <point x="55" y="520"/>
      <point x="55" y="282" type="curve" smooth="yes"/>
      <point x="55" y="110"/>
      <point x="149" y="-11"/>
    </contour>
    <contour>
      <point x="478" y="252" type="curve"/>
      <point x="463" y="299"/>
      <point x="454" y="327"/>
      <point x="454" y="354" type="curve" smooth="yes"/>
      <point x="454" y="383"/>
      <point x="474" y="402"/>
      <point x="507" y="402" type="curve" smooth="yes"/>
      <point x="539" y="402"/>
      <point x="555" y="384"/>
      <point x="555" y="348" type="curve" smooth="yes"/>
      <point x="555" y="308"/>
      <point x="525" y="271"/>
    </contour>
  </outline>
</glyph>
<glyph name="uniA88E" format="2">
  <advance width="735"/>
  <unicode hex="A88E"/>
  <outline>
    <contour>
      <point x="340" y="-11" type="curve" smooth="yes"/>
      <point x="452" y="-11"/>
      <point x="583" y="34"/>
      <point x="583" y="138" type="curve" smooth="yes"/>
      <point x="583" y="153"/>
      <point x="581" y="169"/>
      <point x="577" y="186" type="curve"/>
      <point x="657" y="211"/>
      <point x="700" y="268"/>
      <point x="700" y="348" type="curve" smooth="yes"/>
      <point x="700" y="422"/>
      <point x="648" y="472"/>
      <point x="581" y="472" type="curve" smooth="yes"/>
      <point x="514" y="472"/>
      <point x="463" y="433"/>
      <point x="463" y="364" type="curve" smooth="yes"/>
      <point x="463" y="326"/>
      <point x="470" y="285"/>
      <point x="485" y="242" type="curve"/>
      <point x="476" y="241"/>
      <point x="466" y="240"/>
      <point x="457" y="240" type="curve" smooth="yes"/>
      <point x="414" y="241"/>
      <point x="404" y="267"/>
      <point x="404" y="344" type="curve" smooth="yes"/>
      <point x="404" y="466" type="line"/>
      <point x="326" y="460" type="line"/>
      <point x="326" y="335" type="line" smooth="yes"/>
      <point x="326" y="296"/>
      <point x="331" y="265"/>
      <point x="340" y="243" type="curve"/>
      <point x="328" y="241"/>
      <point x="317" y="240"/>
      <point x="308" y="240" type="curve" smooth="yes"/>
      <point x="263" y="240"/>
      <point x="251" y="267"/>
      <point x="251" y="354" type="curve" smooth="yes"/>
      <point x="251" y="456" type="line"/>
      <point x="173" y="450" type="line"/>
      <point x="173" y="325" type="line" smooth="yes"/>
      <point x="173" y="224"/>
      <point x="210" y="175"/>
      <point x="297" y="175" type="curve" smooth="yes"/>
      <point x="323" y="175"/>
      <point x="352" y="180"/>
      <point x="385" y="190" type="curve"/>
      <point x="404" y="180"/>
      <point x="436" y="175"/>
      <point x="461" y="175" type="curve" smooth="yes"/>
      <point x="476" y="175"/>
      <point x="492" y="176"/>
      <point x="507" y="177" type="curve"/>
      <point x="510" y="165"/>
      <point x="512" y="154"/>
      <point x="512" y="146" type="curve" smooth="yes"/>
      <point x="512" y="97"/>
      <point x="434" y="63"/>
      <point x="339" y="63" type="curve" smooth="yes"/>
      <point x="183" y="63"/>
      <point x="93" y="161"/>
      <point x="93" y="337" type="curve" smooth="yes"/>
      <point x="93" y="508"/>
      <point x="193" y="606"/>
      <point x="362" y="606" type="curve" smooth="yes"/>
      <point x="450" y="606"/>
      <point x="540" y="571"/>
      <point x="592" y="515" type="curve"/>
      <point x="641" y="567" type="line"/>
      <point x="569" y="640"/>
      <point x="467" y="680"/>
      <point x="355" y="680" type="curve" smooth="yes"/>
      <point x="158" y="680"/>
      <point x="19" y="548"/>
      <point x="19" y="335" type="curve" smooth="yes"/>
      <point x="19" y="133"/>
      <point x="151" y="-11"/>
    </contour>
    <contour>
      <point x="557" y="252" type="curve"/>
      <point x="544" y="291"/>
      <point x="538" y="325"/>
      <point x="538" y="354" type="curve" smooth="yes"/>
      <point x="538" y="387"/>
      <point x="553" y="403"/>
      <point x="583" y="403" type="curve" smooth="yes"/>
      <point x="611" y="403"/>
      <point x="625" y="385"/>
      <point x="625" y="348" type="curve" smooth="yes"/>
      <point x="625" y="308"/>
      <point x="604" y="271"/>
    </contour>
  </outline>
</glyph>
<glyph name="uniA891" format="2">
  <advance width="827"/>
  <unicode hex="A891"/>
  <outline>
    <contour>
      <point x="348" y="-12" type="curve" smooth="yes"/>
      <point x="491" y="-12"/>
      <point x="576" y="49"/>
      <point x="576" y="154" type="curve" smooth="yes"/>
      <point x="576" y="164"/>
      <point x="575" y="175"/>
      <point x="572" y="187" type="curve"/>
      <point x="603" y="192"/>
      <point x="638" y="202"/>
      <point x="678" y="217" type="curve"/>
      <point x="702" y="185"/>
      <point x="714" y="160"/>
      <point x="714" y="141" type="curve" smooth="yes"/>
      <point x="714" y="114"/>
      <point x="701" y="94"/>
      <point x="645" y="63" type="curve"/>
      <point x="687" y="-2" type="line"/>
      <point x="750" y="29"/>
      <point x="785" y="79"/>
      <point x="785" y="132" type="curve" smooth="yes"/>
      <point x="785" y="166"/>
      <point x="767" y="207"/>
      <point x="732" y="255" type="curve"/>
      <point x="767" y="286"/>
      <point x="791" y="323"/>
      <point x="791" y="376" type="curve" smooth="yes"/>
      <point x="791" y="431"/>
      <point x="750" y="466"/>
      <point x="695" y="466" type="curve" smooth="yes"/>
      <point x="636" y="466"/>
      <point x="597" y="432"/>
      <point x="597" y="376" type="curve" smooth="yes"/>
      <point x="597" y="347"/>
      <point x="609" y="317"/>
      <point x="644" y="270" type="curve"/>
      <point x="617" y="257"/>
      <point x="579" y="249"/>
      <point x="530" y="248" type="curve"/>
      <point x="509" y="262"/>
      <point x="478" y="269"/>
      <point x="438" y="269" type="curve"/>
      <point x="439" y="272" type="line"/>
      <point x="514" y="281"/>
      <point x="547" y="317"/>
      <point x="547" y="398" type="curve" smooth="yes"/>
      <point x="547" y="478"/>
      <point x="486" y="528"/>
      <point x="390" y="528" type="curve" smooth="yes"/>
      <point x="298" y="528"/>
      <point x="234" y="479"/>
      <point x="229" y="399" type="curve"/>
      <point x="308" y="391" type="line"/>
      <point x="313" y="435"/>
      <point x="340" y="457"/>
      <point x="390" y="457" type="curve" smooth="yes"/>
      <point x="445" y="457"/>
      <point x="473" y="435"/>
      <point x="473" y="392" type="curve" smooth="yes"/>
      <point x="473" y="318"/>
      <point x="405" y="310"/>
      <point x="309" y="308" type="curve"/>
      <point x="309" y="237" type="line"/>
      <point x="370" y="237"/>
      <point x="412" y="235"/>
      <point x="435" y="231" type="curve" smooth="yes"/>
      <point x="479" y="223"/>
      <point x="497" y="206"/>
      <point x="497" y="162" type="curve" smooth="yes"/>
      <point x="497" y="102"/>
      <point x="445" y="68"/>
      <point x="345" y="68" type="curve" smooth="yes"/>
      <point x="197" y="68"/>
      <point x="115" y="163"/>
      <point x="115" y="336" type="curve" smooth="yes"/>
      <point x="115" y="508"/>
      <point x="210" y="609"/>
      <point x="358" y="609" type="curve" smooth="yes"/>
      <point x="431" y="609"/>
      <point x="486" y="590"/>
      <point x="539" y="549" type="curve"/>
      <point x="582" y="612" type="line"/>
      <point x="519" y="661"/>
      <point x="443" y="685"/>
      <point x="354" y="685" type="curve" smooth="yes"/>
      <point x="165" y="685"/>
      <point x="41" y="555"/>
      <point x="41" y="334" type="curve" smooth="yes"/>
      <point x="41" y="115"/>
      <point x="160" y="-12"/>
    </contour>
    <contour>
      <point x="694" y="303" type="curve"/>
      <point x="675" y="328"/>
      <point x="663" y="348"/>
      <point x="663" y="373" type="curve" smooth="yes"/>
      <point x="663" y="390"/>
      <point x="676" y="403"/>
      <point x="695" y="403" type="curve" smooth="yes"/>
      <point x="714" y="403"/>
      <point x="727" y="393"/>
      <point x="727" y="373" type="curve" smooth="yes"/>
      <point x="727" y="351"/>
      <point x="716" y="328"/>
    </contour>
  </outline>
</glyph>
<glyph name="uniA893" format="2">
  <advance width="829"/>
  <unicode hex="A893"/>
  <outline>
    <contour>
      <point x="132" y="-10" type="curve" smooth="yes"/>
      <point x="211" y="-10"/>
      <point x="313" y="55"/>
      <point x="384" y="154" type="curve" smooth="yes"/>
      <point x="432" y="221"/>
      <point x="467" y="296"/>
      <point x="491" y="415" type="curve"/>
      <point x="505" y="415"/>
      <point x="519" y="414"/>
      <point x="533" y="414" type="curve" smooth="yes"/>
      <point x="564" y="414"/>
      <point x="587" y="415"/>
      <point x="604" y="418" type="curve"/>
      <point x="633" y="349"/>
      <point x="651" y="304"/>
      <point x="658" y="283" type="curve" smooth="yes"/>
      <point x="668" y="255"/>
      <point x="678" y="214"/>
      <point x="678" y="184" type="curve" smooth="yes"/>
      <point x="678" y="133"/>
      <point x="650" y="93"/>
      <point x="589" y="76" type="curve"/>
      <point x="605" y="-6" type="line"/>
      <point x="694" y="13"/>
      <point x="754" y="86"/>
      <point x="754" y="174" type="curve" smooth="yes"/>
      <point x="754" y="225"/>
      <point x="735" y="291"/>
      <point x="700" y="372" type="curve" smooth="yes"/>
      <point x="673" y="434" type="line"/>
      <point x="738" y="458"/>
      <point x="781" y="501"/>
      <point x="781" y="565" type="curve" smooth="yes"/>
      <point x="781" y="629"/>
      <point x="737" y="670"/>
      <point x="676" y="670" type="curve" smooth="yes"/>
      <point x="601" y="670"/>
      <point x="560" y="628"/>
      <point x="560" y="553" type="curve" smooth="yes"/>
      <point x="560" y="530"/>
      <point x="565" y="505"/>
      <point x="574" y="480" type="curve"/>
      <point x="565" y="479"/>
      <point x="552" y="478"/>
      <point x="534" y="478" type="curve" smooth="yes"/>
      <point x="523" y="478"/>
      <point x="511" y="478"/>
      <point x="500" y="479" type="curve"/>
      <point x="501" y="494"/>
      <point x="502" y="509"/>
      <point x="502" y="524" type="curve" smooth="yes"/>
      <point x="501" y="616"/>
      <point x="464" y="672"/>
      <point x="384" y="672" type="curve" smooth="yes"/>
      <point x="321" y="672"/>
      <point x="274" y="629"/>
      <point x="274" y="565" type="curve" smooth="yes"/>
      <point x="274" y="490"/>
      <point x="328" y="443"/>
      <point x="423" y="424" type="curve"/>
      <point x="403" y="329"/>
      <point x="362" y="241"/>
      <point x="310" y="176" type="curve" smooth="yes"/>
      <point x="258" y="112"/>
      <point x="195" y="71"/>
      <point x="148" y="71" type="curve" smooth="yes"/>
      <point x="131" y="71"/>
      <point x="122" y="78"/>
      <point x="122" y="92" type="curve" smooth="yes"/>
      <point x="122" y="103"/>
      <point x="138" y="154"/>
      <point x="153" y="190" type="curve" smooth="yes"/>
      <point x="218" y="346"/>
      <point x="240" y="434"/>
      <point x="240" y="499" type="curve" smooth="yes"/>
      <point x="240" y="535"/>
      <point x="226" y="563"/>
      <point x="189" y="592" type="curve" smooth="yes"/>
      <point x="82" y="678" type="line"/>
      <point x="35" y="619" type="line"/>
      <point x="149" y="530" type="line" smooth="yes"/>
      <point x="162" y="520"/>
      <point x="168" y="508"/>
      <point x="168" y="489" type="curve" smooth="yes"/>
      <point x="168" y="427"/>
      <point x="125" y="316"/>
      <point x="85" y="215" type="curve" smooth="yes"/>
      <point x="72" y="182"/>
      <point x="39" y="95"/>
      <point x="39" y="69" type="curve" smooth="yes"/>
      <point x="39" y="18"/>
      <point x="75" y="-10"/>
    </contour>
    <contour>
      <point x="432" y="489" type="curve"/>
      <point x="376" y="504"/>
      <point x="347" y="533"/>
      <point x="347" y="566" type="curve" smooth="yes"/>
      <point x="347" y="587"/>
      <point x="367" y="603"/>
      <point x="386" y="603" type="curve" smooth="yes"/>
      <point x="418" y="603"/>
      <point x="434" y="576"/>
      <point x="434" y="522" type="curve" smooth="yes"/>
      <point x="434" y="510"/>
      <point x="433" y="499"/>
    </contour>
    <contour>
      <point x="639" y="495" type="curve"/>
      <point x="632" y="514"/>
      <point x="628" y="533"/>
      <point x="628" y="550" type="curve" smooth="yes"/>
      <point x="628" y="582"/>
      <point x="643" y="601"/>
      <point x="674" y="601" type="curve" smooth="yes"/>
      <point x="695" y="601"/>
      <point x="708" y="586"/>
      <point x="708" y="565" type="curve" smooth="yes"/>
      <point x="708" y="534"/>
      <point x="684" y="510"/>
    </contour>
  </outline>
</glyph>
<glyph name="uniA894" format="2">
  <advance width="734"/>
  <unicode hex="A894"/>
  <outline>
    <contour>
      <point x="577" y="-15" type="line"/>
      <point x="644" y="78"/>
      <point x="681" y="205"/>
      <point x="681" y="342" type="curve" smooth="yes"/>
      <point x="681" y="550"/>
      <point x="617" y="672"/>
      <point x="508" y="672" type="curve" smooth="yes"/>
      <point x="378" y="672"/>
      <point x="340" y="606"/>
      <point x="336" y="428" type="curve"/>
      <point x="336" y="246" type="line" smooth="yes"/>
      <point x="336" y="120"/>
      <point x="310" y="70"/>
      <point x="244" y="70" type="curve" smooth="yes"/>
      <point x="173" y="70"/>
      <point x="135" y="160"/>
      <point x="135" y="324" type="curve" smooth="yes"/>
      <point x="135" y="439"/>
      <point x="164" y="533"/>
      <point x="247" y="629" type="curve"/>
      <point x="190" y="678" type="line"/>
      <point x="103" y="585"/>
      <point x="60" y="463"/>
      <point x="60" y="324" type="curve" smooth="yes"/>
      <point x="60" y="108"/>
      <point x="125" y="-9"/>
      <point x="244" y="-9" type="curve" smooth="yes"/>
      <point x="375" y="-9"/>
      <point x="410" y="70"/>
      <point x="410" y="250" type="curve" smooth="yes"/>
      <point x="410" y="428" type="line" smooth="yes"/>
      <point x="410" y="539"/>
      <point x="428" y="594"/>
      <point x="502" y="594" type="curve" smooth="yes"/>
      <point x="570" y="594"/>
      <point x="607" y="502"/>
      <point x="607" y="342" type="curve" smooth="yes"/>
      <point x="607" y="244"/>
      <point x="564" y="112"/>
      <point x="505" y="32" type="curve"/>
    </contour>
  </outline>
</glyph>
<glyph name="uniA895" format="2">
  <advance width="795"/>
  <unicode hex="A895"/>
  <outline>
    <contour>
      <point x="288" y="-11" type="curve" smooth="yes"/>
      <point x="471" y="-11"/>
      <point x="579" y="88"/>
      <point x="622" y="292" type="curve"/>
      <point x="667" y="263"/>
      <point x="689" y="225"/>
      <point x="689" y="179" type="curve" smooth="yes"/>
      <point x="689" y="140"/>
      <point x="656" y="96"/>
      <point x="611" y="61" type="curve"/>
      <point x="671" y="2" type="line"/>
      <point x="732" y="51"/>
      <point x="763" y="107"/>
      <point x="763" y="170" type="curve" smooth="yes"/>
      <point x="763" y="250"/>
      <point x="722" y="301"/>
      <point x="643" y="366" type="curve"/>
      <point x="659" y="431"/>
      <point x="667" y="480"/>
      <point x="667" y="515" type="curve" smooth="yes"/>
      <point x="667" y="616"/>
      <point x="615" y="674"/>
      <point x="522" y="674" type="curve" smooth="yes"/>
      <point x="445" y="674"/>
      <point x="386" y="620"/>
      <point x="386" y="540" type="curve" smooth="yes"/>
      <point x="386" y="440"/>
      <point x="472" y="391"/>
      <point x="562" y="338" type="curve"/>
      <point x="521" y="153"/>
      <point x="436" y="69"/>
      <point x="293" y="69" type="curve" smooth="yes"/>
      <point x="178" y="69"/>
      <point x="115" y="119"/>
      <point x="115" y="202" type="curve" smooth="yes"/>
      <point x="115" y="241"/>
      <point x="130" y="287"/>
      <point x="161" y="304" type="curve" smooth="yes"/>
      <point x="192" y="321"/>
      <point x="221" y="332"/>
      <point x="320" y="333" type="curve"/>
      <point x="320" y="401" type="line"/>
      <point x="195" y="401"/>
      <point x="132" y="448"/>
      <point x="132" y="529" type="curve" smooth="yes"/>
      <point x="132" y="572"/>
      <point x="156" y="597"/>
      <point x="203" y="597" type="curve" smooth="yes"/>
      <point x="244" y="597"/>
      <point x="264" y="581"/>
      <point x="264" y="533" type="curve"/>
      <point x="337" y="533" type="line"/>
      <point x="337" y="539"/>
      <point x="338" y="544"/>
      <point x="338" y="550" type="curve" smooth="yes"/>
      <point x="338" y="625"/>
      <point x="288" y="672"/>
      <point x="204" y="672" type="curve" smooth="yes"/>
      <point x="120" y="672"/>
      <point x="57" y="617"/>
      <point x="57" y="530" type="curve" smooth="yes"/>
      <point x="57" y="439"/>
      <point x="103" y="385"/>
      <point x="194" y="369" type="curve"/>
      <point x="92" y="360"/>
      <point x="41" y="305"/>
      <point x="41" y="203" type="curve" smooth="yes"/>
      <point x="41" y="70"/>
      <point x="136" y="-11"/>
    </contour>
    <contour>
      <point x="578" y="408" type="curve"/>
      <point x="543" y="428"/>
      <point x="524" y="440"/>
      <point x="510" y="451" type="curve" smooth="yes"/>
      <point x="484" y="471"/>
      <point x="464" y="496"/>
      <point x="464" y="536" type="curve" smooth="yes"/>
      <point x="464" y="571"/>
      <point x="492" y="596"/>
      <point x="525" y="596" type="curve" smooth="yes"/>
      <point x="570" y="596"/>
      <point x="592" y="569"/>
      <point x="592" y="515" type="curve" smooth="yes"/>
      <point x="592" y="478"/>
      <point x="587" y="442"/>
    </contour>
  </outline>
</glyph>
<glyph name="uniA898" format="2">
  <advance width="716"/>
  <unicode hex="A898"/>
  <outline>
    <contour>
      <point x="336" y="-11" type="curve" smooth="yes"/>
      <point x="554" y="-11"/>
      <point x="674" y="159"/>
      <point x="674" y="368" type="curve" smooth="yes"/>
      <point x="674" y="556"/>
      <point x="604" y="673"/>
      <point x="500" y="673" type="curve" smooth="yes"/>
      <point x="413" y="673"/>
      <point x="366" y="626"/>
      <point x="366" y="543" type="curve" smooth="yes"/>
      <point x="366" y="468"/>
      <point x="418" y="424"/>
      <point x="503" y="424" type="curve"/>
      <point x="503" y="500" type="line"/>
      <point x="462" y="500"/>
      <point x="441" y="516"/>
      <point x="441" y="548" type="curve" smooth="yes"/>
      <point x="441" y="579"/>
      <point x="461" y="596"/>
      <point x="498" y="596" type="curve" smooth="yes"/>
      <point x="562" y="596"/>
      <point x="599" y="521"/>
      <point x="599" y="370" type="curve" smooth="yes"/>
      <point x="599" y="190"/>
      <point x="500" y="70"/>
      <point x="339" y="70" type="curve" smooth="yes"/>
      <point x="198" y="70"/>
      <point x="127" y="119"/>
      <point x="127" y="211" type="curve" smooth="yes"/>
      <point x="127" y="295"/>
      <point x="177" y="332"/>
      <point x="328" y="333" type="curve"/>
      <point x="328" y="415" type="line"/>
      <point x="204" y="415"/>
      <point x="142" y="449"/>
      <point x="142" y="518" type="curve" smooth="yes"/>
      <point x="142" y="571"/>
      <point x="178" y="596"/>
      <point x="259" y="596" type="curve" smooth="yes"/>
      <point x="269" y="596"/>
      <point x="280" y="595"/>
      <point x="290" y="595" type="curve"/>
      <point x="290" y="673" type="line"/>
      <point x="279" y="673"/>
      <point x="268" y="674"/>
      <point x="257" y="674" type="curve" smooth="yes"/>
      <point x="132" y="674"/>
      <point x="66" y="621"/>
      <point x="66" y="521" type="curve" smooth="yes"/>
      <point x="66" y="441"/>
      <point x="113" y="390"/>
      <point x="201" y="375" type="curve"/>
      <point x="105" y="366"/>
      <point x="51" y="308"/>
      <point x="51" y="213" type="curve" smooth="yes"/>
      <point x="51" y="72"/>
      <point x="165" y="-11"/>
    </contour>
  </outline>
</glyph>
<glyph name="uniA89A" format="2">
  <advance width="902"/>
  <unicode hex="A89A"/>
  <outline>
    <contour>
      <point x="449" y="-12" type="curve" smooth="yes"/>
      <point x="530" y="-12"/>
      <point x="576" y="33"/>
      <point x="576" y="108" type="curve" smooth="yes"/>
      <point x="576" y="158"/>
      <point x="547" y="188"/>
      <point x="501" y="226" type="curve"/>
      <point x="531" y="253"/>
      <point x="552" y="275"/>
      <point x="565" y="292" type="curve" smooth="yes"/>
      <point x="590" y="325"/>
      <point x="605" y="368"/>
      <point x="605" y="409" type="curve" smooth="yes"/>
      <point x="605" y="479"/>
      <point x="578" y="537"/>
      <point x="525" y="583" type="curve"/>
      <point x="540" y="590"/>
      <point x="560" y="594"/>
      <point x="585" y="594" type="curve" smooth="yes"/>
      <point x="713" y="594"/>
      <point x="776" y="502"/>
      <point x="776" y="329" type="curve" smooth="yes"/>
      <point x="776" y="185"/>
      <point x="742" y="88"/>
      <point x="634" y="75" type="curve"/>
      <point x="634" y="-10" type="line"/>
      <point x="697" y="-8"/>
      <point x="753" y="21"/>
      <point x="793" y="81" type="curve" smooth="yes"/>
      <point x="832" y="139"/>
      <point x="853" y="221"/>
      <point x="853" y="337" type="curve" smooth="yes"/>
      <point x="853" y="540"/>
      <point x="749" y="674"/>
      <point x="587" y="674" type="curve" smooth="yes"/>
      <point x="550" y="674"/>
      <point x="495" y="661"/>
      <point x="452" y="640" type="curve"/>
      <point x="412" y="662"/>
      <point x="369" y="673"/>
      <point x="322" y="673" type="curve" smooth="yes"/>
      <point x="138" y="673"/>
      <point x="46" y="543"/>
      <point x="46" y="328" type="curve" smooth="yes"/>
      <point x="46" y="136"/>
      <point x="120" y="-2"/>
      <point x="268" y="-10" type="curve"/>
      <point x="268" y="75" type="line"/>
      <point x="159" y="88"/>
      <point x="122" y="183"/>
      <point x="122" y="330" type="curve" smooth="yes"/>
      <point x="122" y="494"/>
      <point x="193" y="593"/>
      <point x="323" y="593" type="curve" smooth="yes"/>
      <point x="343" y="593"/>
      <point x="360" y="589"/>
      <point x="375" y="582" type="curve"/>
      <point x="319" y="544"/>
      <point x="291" y="486"/>
      <point x="291" y="409" type="curve" smooth="yes"/>
      <point x="291" y="364"/>
      <point x="304" y="327"/>
      <point x="328" y="294" type="curve" smooth="yes"/>
      <point x="340" y="278"/>
      <point x="361" y="255"/>
      <point x="392" y="225" type="curve"/>
      <point x="333" y="178"/>
      <point x="322" y="147"/>
      <point x="322" y="106" type="curve" smooth="yes"/>
      <point x="322" y="33"/>
      <point x="368" y="-12"/>
    </contour>
    <contour>
      <point x="449" y="57" type="curve" smooth="yes"/>
      <point x="418" y="57"/>
      <point x="404" y="76"/>
      <point x="404" y="107" type="curve" smooth="yes"/>
      <point x="404" y="134"/>
      <point x="418" y="159"/>
      <point x="447" y="181" type="curve"/>
      <point x="475" y="161"/>
      <point x="493" y="131"/>
      <point x="493" y="107" type="curve" smooth="yes"/>
      <point x="493" y="74"/>
      <point x="478" y="57"/>
    </contour>
    <contour>
      <point x="446" y="269" type="curve"/>
      <point x="422" y="291"/>
      <point x="406" y="308"/>
      <point x="397" y="320" type="curve" smooth="yes"/>
      <point x="380" y="342"/>
      <point x="370" y="374"/>
      <point x="370" y="410" type="curve" smooth="yes"/>
      <point x="370" y="471"/>
      <point x="396" y="520"/>
      <point x="448" y="557" type="curve"/>
      <point x="499" y="519"/>
      <point x="525" y="471"/>
      <point x="525" y="412" type="curve" smooth="yes"/>
      <point x="525" y="343"/>
      <point x="495" y="311"/>
    </contour>
  </outline>
</glyph>
<glyph name="uniA89E" format="2">
  <advance width="659"/>
  <unicode hex="A89E"/>
  <outline>
    <contour>
      <point x="333" y="-11" type="curve" smooth="yes"/>
      <point x="491" y="-11"/>
      <point x="615" y="87"/>
      <point x="615" y="251" type="curve" smooth="yes"/>
      <point x="615" y="376"/>
      <point x="563" y="448"/>
      <point x="470" y="448" type="curve" smooth="yes"/>
      <point x="449" y="448"/>
      <point x="426" y="443"/>
      <point x="402" y="434" type="curve"/>
      <point x="457" y="510"/>
      <point x="528" y="564"/>
      <point x="617" y="613" type="curve"/>
      <point x="600" y="666" type="line"/>
      <point x="72" y="666" type="line"/>
      <point x="59" y="593" type="line"/>
      <point x="473" y="593" type="line"/>
      <point x="392" y="533"/>
      <point x="316" y="448"/>
      <point x="245" y="339" type="curve"/>
      <point x="310" y="294" type="line"/>
      <point x="340" y="351"/>
      <point x="386" y="379"/>
      <point x="448" y="379" type="curve" smooth="yes"/>
      <point x="511" y="379"/>
      <point x="540" y="337"/>
      <point x="540" y="252" type="curve" smooth="yes"/>
      <point x="540" y="142"/>
      <point x="449" y="69"/>
      <point x="331" y="69" type="curve" smooth="yes"/>
      <point x="190" y="69"/>
      <point x="109" y="147"/>
      <point x="109" y="280" type="curve" smooth="yes"/>
      <point x="109" y="379"/>
      <point x="152" y="435"/>
      <point x="239" y="435" type="curve"/>
      <point x="239" y="513" type="line"/>
      <point x="110" y="513"/>
      <point x="34" y="428"/>
      <point x="34" y="272" type="curve" smooth="yes"/>
      <point x="34" y="103"/>
      <point x="153" y="-11"/>
    </contour>
  </outline>
</glyph>
<glyph name="uniA89F" format="2">
  <advance width="689"/>
  <unicode hex="A89F"/>
  <outline>
    <contour>
      <point x="339" y="-9" type="curve" smooth="yes"/>
      <point x="520" y="-9"/>
      <point x="631" y="116"/>
      <point x="631" y="347" type="curve" smooth="yes"/>
      <point x="631" y="594"/>
      <point x="528" y="677"/>
      <point x="443" y="677" type="curve" smooth="yes"/>
      <point x="367" y="677"/>
      <point x="314" y="627"/>
      <point x="314" y="554" type="curve" smooth="yes"/>
      <point x="314" y="458"/>
      <point x="393" y="401"/>
      <point x="525" y="401" type="curve" smooth="yes"/>
      <point x="559" y="401" type="line"/>
      <point x="560" y="386"/>
      <point x="561" y="368"/>
      <point x="561" y="347" type="curve" smooth="yes"/>
      <point x="561" y="166"/>
      <point x="472" y="70"/>
      <point x="339" y="70" type="curve" smooth="yes"/>
      <point x="215" y="70"/>
      <point x="138" y="129"/>
      <point x="138" y="236" type="curve" smooth="yes"/>
      <point x="138" y="303"/>
      <point x="174" y="346"/>
      <point x="230" y="346" type="curve" smooth="yes"/>
      <point x="235" y="346"/>
      <point x="239" y="345"/>
      <point x="244" y="344" type="curve"/>
      <point x="355" y="267" type="line"/>
      <point x="372" y="347" type="line"/>
      <point x="102" y="534" type="line"/>
      <point x="85" y="455" type="line"/>
      <point x="165" y="399" type="line"/>
      <point x="98" y="374"/>
      <point x="65" y="320"/>
      <point x="65" y="232" type="curve" smooth="yes"/>
      <point x="65" y="89"/>
      <point x="173" y="-9"/>
    </contour>
    <contour>
      <point x="516" y="471" type="line"/>
      <point x="437" y="471"/>
      <point x="387" y="500"/>
      <point x="387" y="552" type="curve" smooth="yes"/>
      <point x="387" y="580"/>
      <point x="408" y="602"/>
      <point x="441" y="602" type="curve" smooth="yes"/>
      <point x="492" y="602"/>
      <point x="534" y="552"/>
      <point x="549" y="471" type="curve"/>
    </contour>
  </outline>
</glyph>
<glyph name="uniA8A0" format="2">
  <advance width="784"/>
  <unicode hex="A8A0"/>
  <outline>
    <contour>
      <point x="324" y="-9" type="curve" smooth="yes"/>
      <point x="487" y="-9"/>
      <point x="583" y="98"/>
      <point x="583" y="282" type="curve" smooth="yes"/>
      <point x="583" y="443"/>
      <point x="525" y="527"/>
      <point x="414" y="527" type="curve" smooth="yes"/>
      <point x="329" y="527"/>
      <point x="272" y="476"/>
      <point x="272" y="399" type="curve" smooth="yes"/>
      <point x="272" y="375"/>
      <point x="278" y="353"/>
      <point x="290" y="333" type="curve"/>
      <point x="193" y="333" type="line"/>
      <point x="182" y="261" type="line"/>
      <point x="432" y="261" type="line"/>
      <point x="444" y="333" type="line"/>
      <point x="380" y="333" type="line"/>
      <point x="359" y="340"/>
      <point x="345" y="365"/>
      <point x="345" y="394" type="curve" smooth="yes"/>
      <point x="345" y="435"/>
      <point x="372" y="456"/>
      <point x="416" y="456" type="curve" smooth="yes"/>
      <point x="478" y="456"/>
      <point x="509" y="398"/>
      <point x="509" y="282" type="curve" smooth="yes"/>
      <point x="509" y="147"/>
      <point x="442" y="70"/>
      <point x="322" y="70" type="curve" smooth="yes"/>
      <point x="205" y="70"/>
      <point x="125" y="166"/>
      <point x="125" y="343" type="curve" smooth="yes"/>
      <point x="125" y="505"/>
      <point x="229" y="609"/>
      <point x="383" y="609" type="curve" smooth="yes"/>
      <point x="553" y="609"/>
      <point x="658" y="486"/>
      <point x="658" y="278" type="curve" smooth="yes"/>
      <point x="658" y="186"/>
      <point x="640" y="98"/>
      <point x="602" y="25" type="curve"/>
      <point x="675" y="-5" type="line"/>
      <point x="711" y="72"/>
      <point x="734" y="183"/>
      <point x="734" y="272" type="curve" smooth="yes"/>
      <point x="734" y="439"/>
      <point x="681" y="565"/>
      <point x="569" y="632" type="curve" smooth="yes"/>
      <point x="514" y="665"/>
      <point x="452" y="684"/>
      <point x="382" y="684" type="curve" smooth="yes"/>
      <point x="253" y="684"/>
      <point x="142" y="621"/>
      <point x="90" y="517" type="curve" smooth="yes"/>
      <point x="64" y="466"/>
      <point x="51" y="406"/>
      <point x="51" y="337" type="curve" smooth="yes"/>
      <point x="51" y="120"/>
      <point x="160" y="-9"/>
    </contour>
  </outline>
</glyph>
<glyph name="uniA8A3" format="2">
  <advance width="598"/>
  <unicode hex="A8A3"/>
  <outline>
    <contour>
      <point x="255" y="-9" type="curve" smooth="yes"/>
      <point x="347" y="-9"/>
      <point x="410" y="26"/>
      <point x="447" y="83" type="curve"/>
      <point x="472" y="28"/>
      <point x="518" y="0"/>
      <point x="584" y="0" type="curve" smooth="yes"/>
      <point x="589" y="0"/>
      <point x="594" y="0"/>
      <point x="599" y="1" type="curve"/>
      <point x="589" y="80" type="line"/>
      <point x="522" y="80"/>
      <point x="488" y="111"/>
      <point x="488" y="173" type="curve" smooth="yes"/>
      <point x="488" y="190"/>
      <point x="490" y="210"/>
      <point x="493" y="233" type="curve"/>
      <point x="428" y="246" type="line"/>
      <point x="416" y="129"/>
      <point x="363" y="70"/>
      <point x="250" y="70" type="curve" smooth="yes"/>
      <point x="173" y="70"/>
      <point x="126" y="108"/>
      <point x="126" y="172" type="curve" smooth="yes"/>
      <point x="126" y="207"/>
      <point x="140" y="230"/>
      <point x="171" y="253" type="curve" smooth="yes"/>
      <point x="187" y="265"/>
      <point x="222" y="283"/>
      <point x="275" y="309" type="curve" smooth="yes"/>
      <point x="324" y="333"/>
      <point x="359" y="353"/>
      <point x="381" y="370" type="curve" smooth="yes"/>
      <point x="424" y="403"/>
      <point x="443" y="445"/>
      <point x="443" y="500" type="curve" smooth="yes"/>
      <point x="443" y="608"/>
      <point x="375" y="671"/>
      <point x="261" y="671" type="curve" smooth="yes"/>
      <point x="168" y="671"/>
      <point x="70" y="618"/>
      <point x="70" y="521" type="curve" smooth="yes"/>
      <point x="70" y="448"/>
      <point x="107" y="399"/>
      <point x="184" y="380" type="curve"/>
      <point x="205" y="448" type="line"/>
      <point x="166" y="459"/>
      <point x="147" y="478"/>
      <point x="147" y="519" type="curve" smooth="yes"/>
      <point x="147" y="564"/>
      <point x="196" y="599"/>
      <point x="260" y="599" type="curve" smooth="yes"/>
      <point x="328" y="599"/>
      <point x="371" y="564"/>
      <point x="371" y="505" type="curve" smooth="yes"/>
      <point x="371" y="445"/>
      <point x="343" y="411"/>
      <point x="262" y="374" type="curve" smooth="yes"/>
      <point x="193" y="342"/>
      <point x="146" y="317"/>
      <point x="122" y="300" type="curve" smooth="yes"/>
      <point x="75" y="267"/>
      <point x="52" y="226"/>
      <point x="52" y="167" type="curve" smooth="yes"/>
      <point x="52" y="58"/>
      <point x="132" y="-9"/>
    </contour>
  </outline>
</glyph>
<glyph name="uniA8A5" format="2">
  <advance width="694"/>
  <unicode hex="A8A5"/>
  <outline>
    <contour>
      <point x="206" y="-7" type="curve" smooth="yes"/>
      <point x="290" y="-7"/>
      <point x="346" y="49"/>
      <point x="346" y="137" type="curve" smooth="yes"/>
      <point x="346" y="234"/>
      <point x="293" y="292"/>
      <point x="205" y="292" type="curve" smooth="yes"/>
      <point x="178" y="292"/>
      <point x="148" y="286"/>
      <point x="115" y="275" type="curve"/>
      <point x="115" y="498"/>
      <point x="161" y="593"/>
      <point x="256" y="593" type="curve" smooth="yes"/>
      <point x="291" y="593"/>
      <point x="330" y="573"/>
      <point x="378" y="530" type="curve" smooth="yes"/>
      <point x="429" y="484" type="line"/>
      <point x="429" y="0" type="line"/>
      <point x="502" y="0" type="line"/>
      <point x="502" y="429" type="line"/>
      <point x="521" y="418"/>
      <point x="542" y="413"/>
      <point x="563" y="413" type="curve" smooth="yes"/>
      <point x="639" y="413"/>
      <point x="682" y="457"/>
      <point x="682" y="544" type="curve" smooth="yes"/>
      <point x="682" y="627"/>
      <point x="638" y="674"/>
      <point x="562" y="674" type="curve" smooth="yes"/>
      <point x="489" y="674"/>
      <point x="446" y="638"/>
      <point x="433" y="567" type="curve"/>
      <point x="358" y="638"/>
      <point x="301" y="669"/>
      <point x="253" y="669" type="curve" smooth="yes"/>
      <point x="110" y="669"/>
      <point x="42" y="538"/>
      <point x="42" y="275" type="curve" smooth="yes"/>
      <point x="42" y="96"/>
      <point x="99" y="-7"/>
    </contour>
    <contour>
      <point x="206" y="65" type="curve" smooth="yes"/>
      <point x="163" y="65"/>
      <point x="130" y="107"/>
      <point x="119" y="199" type="curve"/>
      <point x="146" y="211"/>
      <point x="183" y="219"/>
      <point x="204" y="219" type="curve" smooth="yes"/>
      <point x="251" y="219"/>
      <point x="272" y="196"/>
      <point x="272" y="137" type="curve" smooth="yes"/>
      <point x="272" y="93"/>
      <point x="245" y="65"/>
    </contour>
    <contour>
      <point x="557" y="484" type="curve" smooth="yes"/>
      <point x="541" y="484"/>
      <point x="523" y="491"/>
      <point x="502" y="506" type="curve"/>
      <point x="502" y="515" type="line" smooth="yes"/>
      <point x="502" y="580"/>
      <point x="519" y="601"/>
      <point x="562" y="601" type="curve" smooth="yes"/>
      <point x="595" y="601"/>
      <point x="611" y="582"/>
      <point x="611" y="544" type="curve" smooth="yes"/>
      <point x="611" y="508"/>
      <point x="592" y="484"/>
    </contour>
  </outline>
</glyph>
<glyph name="uniA8A6" format="2">
  <advance width="588"/>
  <unicode hex="A8A6"/>
  <outline>
    <contour>
      <point x="200" y="-7" type="curve" smooth="yes"/>
      <point x="257" y="-7"/>
      <point x="312" y="17"/>
      <point x="365" y="66" type="curve" smooth="yes"/>
      <point x="475" y="167"/>
      <point x="540" y="347"/>
      <point x="540" y="500" type="curve" smooth="yes"/>
      <point x="540" y="613"/>
      <point x="491" y="674"/>
      <point x="383" y="674" type="curve" smooth="yes"/>
      <point x="277" y="674" type="line"/>
      <point x="277" y="597" type="line"/>
      <point x="383" y="597" type="line" smooth="yes"/>
      <point x="443" y="597"/>
      <point x="467" y="565"/>
      <point x="467" y="496" type="curve" smooth="yes"/>
      <point x="467" y="370"/>
      <point x="411" y="219"/>
      <point x="327" y="135" type="curve" smooth="yes"/>
      <point x="286" y="94"/>
      <point x="244" y="74"/>
      <point x="201" y="74" type="curve" smooth="yes"/>
      <point x="152" y="74"/>
      <point x="122" y="94"/>
      <point x="122" y="127" type="curve" smooth="yes"/>
      <point x="122" y="139"/>
      <point x="126" y="158"/>
      <point x="133" y="185" type="curve" smooth="yes"/>
      <point x="177" y="354" type="line" smooth="yes"/>
      <point x="202" y="451"/>
      <point x="218" y="515"/>
      <point x="218" y="548" type="curve" smooth="yes"/>
      <point x="218" y="623"/>
      <point x="173" y="672"/>
      <point x="105" y="672" type="curve" smooth="yes"/>
      <point x="78" y="672"/>
      <point x="52" y="667"/>
      <point x="28" y="657" type="curve"/>
      <point x="54" y="585" type="line"/>
      <point x="69" y="591"/>
      <point x="83" y="594"/>
      <point x="96" y="594" type="curve" smooth="yes"/>
      <point x="123" y="594"/>
      <point x="144" y="581"/>
      <point x="144" y="548" type="curve" smooth="yes"/>
      <point x="144" y="521"/>
      <point x="129" y="461"/>
      <point x="104" y="369" type="curve" smooth="yes"/>
      <point x="69" y="241" type="line" smooth="yes"/>
      <point x="51" y="176"/>
      <point x="42" y="133"/>
      <point x="42" y="112" type="curve" smooth="yes"/>
      <point x="42" y="77"/>
      <point x="57" y="48"/>
      <point x="87" y="26" type="curve" smooth="yes"/>
      <point x="118" y="4"/>
      <point x="155" y="-7"/>
    </contour>
  </outline>
</glyph>
<glyph name="uniA8A7" format="2">
  <advance width="713"/>
  <unicode hex="A8A7"/>
  <outline>
    <contour>
      <point x="310" y="-9" type="curve" smooth="yes"/>
      <point x="406" y="-9"/>
      <point x="466" y="20"/>
      <point x="511" y="67" type="curve" smooth="yes"/>
      <point x="552" y="109"/>
      <point x="574" y="166"/>
      <point x="574" y="227" type="curve" smooth="yes"/>
      <point x="574" y="312"/>
      <point x="541" y="367"/>
      <point x="475" y="393" type="curve"/>
      <point x="441" y="324" type="line"/>
      <point x="482" y="309"/>
      <point x="503" y="276"/>
      <point x="503" y="227" type="curve" smooth="yes"/>
      <point x="503" y="133"/>
      <point x="425" y="72"/>
      <point x="317" y="72" type="curve" smooth="yes"/>
      <point x="178" y="72"/>
      <point x="96" y="173"/>
      <point x="96" y="329" type="curve" smooth="yes"/>
      <point x="96" y="497"/>
      <point x="158" y="597"/>
      <point x="259" y="597" type="curve" smooth="yes"/>
      <point x="314" y="597"/>
      <point x="354" y="565"/>
      <point x="400" y="517" type="curve"/>
      <point x="377" y="482"/>
      <point x="359" y="459"/>
      <point x="348" y="448" type="curve" smooth="yes"/>
      <point x="337" y="437"/>
      <point x="325" y="433"/>
      <point x="313" y="433" type="curve" smooth="yes"/>
      <point x="296" y="433"/>
      <point x="286" y="440"/>
      <point x="273" y="463" type="curve"/>
      <point x="215" y="424" type="line"/>
      <point x="242" y="376"/>
      <point x="271" y="358"/>
      <point x="312" y="358" type="curve" smooth="yes"/>
      <point x="355" y="358"/>
      <point x="387" y="380"/>
      <point x="421" y="429" type="curve" smooth="yes"/>
      <point x="450" y="471" type="line"/>
      <point x="489" y="438"/>
      <point x="527" y="422"/>
      <point x="563" y="422" type="curve" smooth="yes"/>
      <point x="633" y="422"/>
      <point x="682" y="476"/>
      <point x="682" y="539" type="curve" smooth="yes"/>
      <point x="682" y="611"/>
      <point x="638" y="658"/>
      <point x="565" y="658" type="curve" smooth="yes"/>
      <point x="520" y="658"/>
      <point x="481" y="633"/>
      <point x="438" y="573" type="curve"/>
      <point x="387" y="619" type="line" smooth="yes"/>
      <point x="339" y="662"/>
      <point x="305" y="678"/>
      <point x="256" y="678" type="curve" smooth="yes"/>
      <point x="114" y="678"/>
      <point x="27" y="540"/>
      <point x="27" y="330" type="curve" smooth="yes"/>
      <point x="27" y="130"/>
      <point x="135" y="-9"/>
    </contour>
    <contour>
      <point x="561" y="494" type="curve" smooth="yes"/>
      <point x="538" y="494"/>
      <point x="519" y="505"/>
      <point x="490" y="529" type="curve"/>
      <point x="517" y="569"/>
      <point x="536" y="584"/>
      <point x="563" y="584" type="curve" smooth="yes"/>
      <point x="591" y="584"/>
      <point x="608" y="568"/>
      <point x="608" y="539" type="curve" smooth="yes"/>
      <point x="608" y="515"/>
      <point x="588" y="494"/>
    </contour>
  </outline>
</glyph>
<glyph name="uniA8AB" format="2">
  <advance width="673"/>
  <unicode hex="A8AB"/>
  <outline>
    <contour>
      <point x="290" y="-7" type="curve" smooth="yes"/>
      <point x="345" y="-7"/>
      <point x="397" y="17"/>
      <point x="448" y="66" type="curve" smooth="yes"/>
      <point x="554" y="168"/>
      <point x="620" y="347"/>
      <point x="620" y="500" type="curve" smooth="yes"/>
      <point x="620" y="613"/>
      <point x="571" y="674"/>
      <point x="463" y="674" type="curve" smooth="yes"/>
      <point x="367" y="674" type="line"/>
      <point x="367" y="597" type="line"/>
      <point x="463" y="597" type="line" smooth="yes"/>
      <point x="523" y="597"/>
      <point x="547" y="565"/>
      <point x="547" y="496" type="curve" smooth="yes"/>
      <point x="547" y="374"/>
      <point x="494" y="225"/>
      <point x="414" y="139" type="curve" smooth="yes"/>
      <point x="374" y="96"/>
      <point x="333" y="74"/>
      <point x="291" y="74" type="curve" smooth="yes"/>
      <point x="240" y="74"/>
      <point x="212" y="94"/>
      <point x="212" y="127" type="curve" smooth="yes"/>
      <point x="212" y="139"/>
      <point x="216" y="158"/>
      <point x="223" y="185" type="curve" smooth="yes"/>
      <point x="267" y="354" type="line" smooth="yes"/>
      <point x="292" y="451"/>
      <point x="308" y="512"/>
      <point x="308" y="548" type="curve" smooth="yes"/>
      <point x="308" y="625"/>
      <point x="262" y="674"/>
      <point x="189" y="674" type="curve" smooth="yes"/>
      <point x="108" y="674"/>
      <point x="56" y="628"/>
      <point x="56" y="549" type="curve" smooth="yes"/>
      <point x="56" y="478"/>
      <point x="94" y="429"/>
      <point x="166" y="421" type="curve"/>
      <point x="182" y="494" type="line"/>
      <point x="146" y="502"/>
      <point x="130" y="520"/>
      <point x="130" y="549" type="curve" smooth="yes"/>
      <point x="130" y="580"/>
      <point x="153" y="597"/>
      <point x="181" y="597" type="curve" smooth="yes"/>
      <point x="217" y="597"/>
      <point x="236" y="577"/>
      <point x="236" y="545" type="curve" smooth="yes"/>
      <point x="236" y="513"/>
      <point x="215" y="439"/>
      <point x="195" y="369" type="curve" smooth="yes"/>
      <point x="159" y="241" type="line" smooth="yes"/>
      <point x="141" y="176"/>
      <point x="132" y="133"/>
      <point x="132" y="112" type="curve" smooth="yes"/>
      <point x="132" y="77"/>
      <point x="147" y="48"/>
      <point x="177" y="26" type="curve" smooth="yes"/>
      <point x="208" y="4"/>
      <point x="245" y="-7"/>
    </contour>
  </outline>
</glyph>
<glyph name="uniA8AC" format="2">
  <advance width="671"/>
  <unicode hex="A8AC"/>
  <outline>
    <contour>
      <point x="128" y="-10" type="curve" smooth="yes"/>
      <point x="191" y="-10"/>
      <point x="229" y="20"/>
      <point x="249" y="87" type="curve"/>
      <point x="299" y="55" type="line" smooth="yes"/>
      <point x="367" y="11"/>
      <point x="411" y="-7"/>
      <point x="450" y="-7" type="curve" smooth="yes"/>
      <point x="565" y="-7"/>
      <point x="624" y="57"/>
      <point x="624" y="173" type="curve" smooth="yes"/>
      <point x="624" y="224"/>
      <point x="603" y="287"/>
      <point x="555" y="372" type="curve" smooth="yes"/>
      <point x="519" y="436"/>
      <point x="486" y="499"/>
      <point x="486" y="544" type="curve" smooth="yes"/>
      <point x="486" y="576"/>
      <point x="502" y="590"/>
      <point x="543" y="590" type="curve" smooth="yes"/>
      <point x="644" y="590" type="line"/>
      <point x="644" y="666" type="line"/>
      <point x="533" y="666" type="line" smooth="yes"/>
      <point x="454" y="666"/>
      <point x="414" y="628"/>
      <point x="414" y="553" type="curve" smooth="yes"/>
      <point x="414" y="512"/>
      <point x="431" y="464"/>
      <point x="482" y="369" type="curve" smooth="yes"/>
      <point x="531" y="278"/>
      <point x="550" y="221"/>
      <point x="550" y="173" type="curve" smooth="yes"/>
      <point x="550" y="113"/>
      <point x="505" y="70"/>
      <point x="438" y="70" type="curve" smooth="yes"/>
      <point x="404" y="70"/>
      <point x="365" y="87"/>
      <point x="310" y="122" type="curve" smooth="yes"/>
      <point x="265" y="151" type="line"/>
      <point x="281" y="220"/>
      <point x="297" y="302"/>
      <point x="314" y="396" type="curve" smooth="yes"/>
      <point x="331" y="490"/>
      <point x="340" y="547"/>
      <point x="340" y="566" type="curve" smooth="yes"/>
      <point x="340" y="630"/>
      <point x="303" y="666"/>
      <point x="236" y="666" type="curve" smooth="yes"/>
      <point x="77" y="666" type="line"/>
      <point x="57" y="590" type="line"/>
      <point x="226" y="590" type="line" smooth="yes"/>
      <point x="253" y="590"/>
      <point x="266" y="575"/>
      <point x="266" y="546" type="curve" smooth="yes"/>
      <point x="266" y="533"/>
      <point x="258" y="486"/>
      <point x="243" y="405" type="curve" smooth="yes"/>
      <point x="228" y="324"/>
      <point x="213" y="251"/>
      <point x="199" y="188" type="curve"/>
      <point x="174" y="199"/>
      <point x="152" y="205"/>
      <point x="133" y="205" type="curve" smooth="yes"/>
      <point x="64" y="205"/>
      <point x="22" y="162"/>
      <point x="22" y="97" type="curve" smooth="yes"/>
      <point x="22" y="36"/>
      <point x="65" y="-10"/>
    </contour>
    <contour>
      <point x="128" y="60" type="curve" smooth="yes"/>
      <point x="105" y="60"/>
      <point x="91" y="76"/>
      <point x="91" y="97" type="curve" smooth="yes"/>
      <point x="91" y="117"/>
      <point x="104" y="134"/>
      <point x="131" y="134" type="curve" smooth="yes"/>
      <point x="146" y="134"/>
      <point x="163" y="130"/>
      <point x="184" y="122" type="curve"/>
      <point x="172" y="77"/>
      <point x="155" y="60"/>
    </contour>
  </outline>
</glyph>
<glyph name="uniA8AF" format="2">
  <advance width="769"/>
  <unicode hex="A8AF"/>
  <outline>
    <contour>
      <point x="153" y="-15" type="curve"/>
      <point x="220" y="31" type="line"/>
      <point x="159" y="114"/>
      <point x="109" y="253"/>
      <point x="109" y="353" type="curve" smooth="yes"/>
      <point x="109" y="508"/>
      <point x="176" y="595"/>
      <point x="293" y="595" type="curve" smooth="yes"/>
      <point x="372" y="595"/>
      <point x="418" y="548"/>
      <point x="418" y="471" type="curve" smooth="yes"/>
      <point x="418" y="447"/>
      <point x="413" y="425"/>
      <point x="404" y="404" type="curve"/>
      <point x="380" y="447"/>
      <point x="341" y="474"/>
      <point x="293" y="474" type="curve" smooth="yes"/>
      <point x="229" y="474"/>
      <point x="186" y="432"/>
      <point x="186" y="372" type="curve" smooth="yes"/>
      <point x="186" y="303"/>
      <point x="230" y="260"/>
      <point x="305" y="260" type="curve" smooth="yes"/>
      <point x="329" y="260"/>
      <point x="350" y="263"/>
      <point x="367" y="270" type="curve"/>
      <point x="366" y="253"/>
      <point x="365" y="237"/>
      <point x="365" y="220" type="curve" smooth="yes"/>
      <point x="365" y="67"/>
      <point x="422" y="-8"/>
      <point x="538" y="-8" type="curve" smooth="yes"/>
      <point x="654" y="-8"/>
      <point x="722" y="113"/>
      <point x="722" y="324" type="curve" smooth="yes"/>
      <point x="722" y="463"/>
      <point x="680" y="578"/>
      <point x="587" y="678" type="curve"/>
      <point x="530" y="629" type="line"/>
      <point x="566" y="585"/>
      <point x="647" y="498"/>
      <point x="647" y="324" type="curve" smooth="yes"/>
      <point x="647" y="159"/>
      <point x="605" y="71"/>
      <point x="533" y="71" type="curve" smooth="yes"/>
      <point x="442" y="71"/>
      <point x="433" y="156"/>
      <point x="433" y="275" type="curve" smooth="yes"/>
      <point x="433" y="290"/>
      <point x="434" y="304"/>
      <point x="434" y="319" type="curve"/>
      <point x="471" y="358"/>
      <point x="489" y="407"/>
      <point x="489" y="467" type="curve" smooth="yes"/>
      <point x="489" y="598"/>
      <point x="407" y="674"/>
      <point x="287" y="674" type="curve" smooth="yes"/>
      <point x="123" y="674"/>
      <point x="35" y="537"/>
      <point x="35" y="353" type="curve" smooth="yes"/>
      <point x="35" y="235"/>
      <point x="85" y="81"/>
    </contour>
    <contour>
      <point x="302" y="334" type="curve" smooth="yes"/>
      <point x="274" y="334"/>
      <point x="260" y="346"/>
      <point x="260" y="370" type="curve" smooth="yes"/>
      <point x="260" y="385"/>
      <point x="271" y="401"/>
      <point x="294" y="401" type="curve" smooth="yes"/>
      <point x="324" y="401"/>
      <point x="344" y="384"/>
      <point x="354" y="349" type="curve"/>
      <point x="336" y="339"/>
      <point x="319" y="334"/>
    </contour>
  </outline>
</glyph>
<glyph name="uniA8B1" format="2">
  <advance width="727"/>
  <unicode hex="A8B1"/>
  <outline>
    <contour>
      <point x="453" y="-8" type="curve" smooth="yes"/>
      <point x="584" y="-8"/>
      <point x="675" y="91"/>
      <point x="675" y="248" type="curve" smooth="yes"/>
      <point x="675" y="339"/>
      <point x="625" y="425"/>
      <point x="625" y="524" type="curve" smooth="yes"/>
      <point x="625" y="568"/>
      <point x="643" y="588"/>
      <point x="684" y="588" type="curve" smooth="yes"/>
      <point x="692" y="588" type="line"/>
      <point x="692" y="666" type="line"/>
      <point x="609" y="666"/>
      <point x="558" y="614"/>
      <point x="558" y="526" type="curve" smooth="yes"/>
      <point x="558" y="454"/>
      <point x="606" y="323"/>
      <point x="606" y="251" type="curve" smooth="yes"/>
      <point x="606" y="140"/>
      <point x="537" y="72"/>
      <point x="453" y="72" type="curve" smooth="yes"/>
      <point x="342" y="72"/>
      <point x="279" y="164"/>
      <point x="279" y="320" type="curve" smooth="yes"/>
      <point x="279" y="383"/>
      <point x="289" y="438"/>
      <point x="308" y="485" type="curve"/>
      <point x="341" y="454"/>
      <point x="374" y="439"/>
      <point x="408" y="439" type="curve" smooth="yes"/>
      <point x="476" y="439"/>
      <point x="516" y="480"/>
      <point x="516" y="552" type="curve" smooth="yes"/>
      <point x="516" y="610"/>
      <point x="477" y="657"/>
      <point x="409" y="657" type="curve" smooth="yes"/>
      <point x="369" y="657"/>
      <point x="326" y="632"/>
      <point x="291" y="588" type="curve"/>
      <point x="262" y="619" type="line" smooth="yes"/>
      <point x="227" y="656"/>
      <point x="195" y="674"/>
      <point x="168" y="674" type="curve" smooth="yes"/>
      <point x="84" y="674"/>
      <point x="47" y="626"/>
      <point x="47" y="517" type="curve" smooth="yes"/>
      <point x="47" y="0" type="line"/>
      <point x="118" y="0" type="line"/>
      <point x="118" y="517" type="line" smooth="yes"/>
      <point x="118" y="569"/>
      <point x="137" y="595"/>
      <point x="174" y="595" type="curve" smooth="yes"/>
      <point x="195" y="595"/>
      <point x="218" y="580"/>
      <point x="258" y="536" type="curve"/>
      <point x="225" y="472"/>
      <point x="209" y="400"/>
      <point x="209" y="320" type="curve" smooth="yes"/>
      <point x="209" y="116"/>
      <point x="306" y="-8"/>
    </contour>
    <contour>
      <point x="405" y="514" type="curve" smooth="yes"/>
      <point x="384" y="514"/>
      <point x="362" y="523"/>
      <point x="339" y="541" type="curve"/>
      <point x="360" y="569"/>
      <point x="383" y="583"/>
      <point x="408" y="583" type="curve" smooth="yes"/>
      <point x="432" y="583"/>
      <point x="448" y="570"/>
      <point x="448" y="550" type="curve" smooth="yes"/>
      <point x="448" y="533"/>
      <point x="436" y="514"/>
    </contour>
  </outline>
</glyph>
<glyph name="uniA8B5" format="2">
  <advance width="517"/>
  <unicode hex="A8B5"/>
  <outline>
    <contour>
      <point x="282" y="-12" type="curve" smooth="yes"/>
      <point x="301" y="-12"/>
      <point x="322" y="-8"/>
      <point x="345" y="1" type="curve"/>
      <point x="318" y="78" type="line"/>
      <point x="307" y="71"/>
      <point x="295" y="68"/>
      <point x="282" y="68" type="curve" smooth="yes"/>
      <point x="258" y="68"/>
      <point x="240" y="80"/>
      <point x="240" y="108" type="curve" smooth="yes"/>
      <point x="240" y="141"/>
      <point x="265" y="201"/>
      <point x="322" y="302" type="curve" smooth="yes"/>
      <point x="351" y="353"/>
      <point x="408" y="450"/>
      <point x="493" y="592" type="curve"/>
      <point x="468" y="666" type="line"/>
      <point x="275" y="666" type="line" smooth="yes"/>
      <point x="206" y="666"/>
      <point x="163" y="644"/>
      <point x="146" y="599" type="curve"/>
      <point x="130" y="642"/>
      <point x="87" y="666"/>
      <point x="27" y="666" type="curve"/>
      <point x="27" y="588" type="line"/>
      <point x="86" y="588"/>
      <point x="113" y="555"/>
      <point x="113" y="480" type="curve" smooth="yes"/>
      <point x="113" y="398" type="line"/>
      <point x="187" y="398" type="line"/>
      <point x="187" y="508" type="line" smooth="yes"/>
      <point x="187" y="565"/>
      <point x="216" y="593"/>
      <point x="275" y="593" type="curve" smooth="yes"/>
      <point x="412" y="593" type="line"/>
      <point x="334" y="460"/>
      <point x="280" y="367"/>
      <point x="251" y="312" type="curve" smooth="yes"/>
      <point x="213" y="241"/>
      <point x="165" y="150"/>
      <point x="165" y="104" type="curve" smooth="yes"/>
      <point x="165" y="35"/>
      <point x="211" y="-12"/>
    </contour>
  </outline>
</glyph>
<glyph name="uniA8B8" format="2">
  <advance width="558"/>
  <unicode hex="A8B8"/>
  <outline>
    <contour>
      <point x="200" y="-9" type="curve" smooth="yes"/>
      <point x="291" y="-9"/>
      <point x="341" y="55"/>
      <point x="341" y="166" type="curve" smooth="yes"/>
      <point x="341" y="289"/>
      <point x="308" y="407"/>
      <point x="245" y="500" type="curve"/>
      <point x="264" y="525"/>
      <point x="283" y="546"/>
      <point x="302" y="561" type="curve"/>
      <point x="302" y="478"/>
      <point x="342" y="433"/>
      <point x="414" y="433" type="curve" smooth="yes"/>
      <point x="482" y="433"/>
      <point x="524" y="481"/>
      <point x="524" y="553" type="curve" smooth="yes"/>
      <point x="524" y="628"/>
      <point x="482" y="672"/>
      <point x="407" y="672" type="curve" smooth="yes"/>
      <point x="338" y="672"/>
      <point x="270" y="631"/>
      <point x="205" y="550" type="curve"/>
      <point x="151" y="609"/>
      <point x="87" y="650"/>
      <point x="12" y="672" type="curve"/>
      <point x="-6" y="602" type="line"/>
      <point x="63" y="585"/>
      <point x="120" y="548"/>
      <point x="165" y="493" type="curve"/>
      <point x="110" y="406"/>
      <point x="57" y="266"/>
      <point x="57" y="167" type="curve" smooth="yes"/>
      <point x="57" y="55"/>
      <point x="107" y="-9"/>
    </contour>
    <contour>
      <point x="200" y="70" type="curve" smooth="yes"/>
      <point x="155" y="70"/>
      <point x="128" y="107"/>
      <point x="128" y="172" type="curve" smooth="yes"/>
      <point x="128" y="254"/>
      <point x="162" y="360"/>
      <point x="205" y="437" type="curve"/>
      <point x="248" y="360"/>
      <point x="270" y="271"/>
      <point x="270" y="171" type="curve" smooth="yes"/>
      <point x="270" y="107"/>
      <point x="238" y="70"/>
    </contour>
    <contour>
      <point x="410" y="507" type="curve" smooth="yes"/>
      <point x="380" y="507"/>
      <point x="365" y="526"/>
      <point x="365" y="565" type="curve" smooth="yes"/>
      <point x="365" y="576"/>
      <point x="366" y="587"/>
      <point x="368" y="599" type="curve"/>
      <point x="384" y="604"/>
      <point x="398" y="606"/>
      <point x="411" y="606" type="curve" smooth="yes"/>
      <point x="439" y="606"/>
      <point x="456" y="587"/>
      <point x="456" y="554" type="curve" smooth="yes"/>
      <point x="456" y="527"/>
      <point x="439" y="507"/>
    </contour>
  </outline>
</glyph>
<glyph name="uniA8B9" format="2">
  <advance width="548"/>
  <unicode hex="A8B9"/>
  <outline>
    <contour>
      <point x="210" y="-9" type="curve" smooth="yes"/>
      <point x="301" y="-9"/>
      <point x="352" y="55"/>
      <point x="352" y="166" type="curve" smooth="yes"/>
      <point x="352" y="285"/>
      <point x="318" y="403"/>
      <point x="253" y="500" type="curve"/>
      <point x="272" y="526"/>
      <point x="291" y="546"/>
      <point x="308" y="561" type="curve"/>
      <point x="308" y="482"/>
      <point x="351" y="436"/>
      <point x="424" y="436" type="curve" smooth="yes"/>
      <point x="489" y="436"/>
      <point x="532" y="482"/>
      <point x="532" y="553" type="curve" smooth="yes"/>
      <point x="532" y="628"/>
      <point x="494" y="669"/>
      <point x="419" y="669" type="curve" smooth="yes"/>
      <point x="410" y="669"/>
      <point x="402" y="668"/>
      <point x="393" y="667" type="curve"/>
      <point x="404" y="692"/>
      <point x="419" y="717"/>
      <point x="440" y="743" type="curve"/>
      <point x="390" y="776" type="line"/>
      <point x="355" y="731"/>
      <point x="332" y="686"/>
      <point x="320" y="643" type="curve"/>
      <point x="286" y="626"/>
      <point x="250" y="595"/>
      <point x="213" y="550" type="curve"/>
      <point x="159" y="610"/>
      <point x="95" y="651"/>
      <point x="22" y="672" type="curve"/>
      <point x="4" y="598" type="line"/>
      <point x="71" y="580"/>
      <point x="128" y="545"/>
      <point x="173" y="493" type="curve"/>
      <point x="116" y="400"/>
      <point x="66" y="267"/>
      <point x="66" y="167" type="curve" smooth="yes"/>
      <point x="66" y="55"/>
      <point x="117" y="-9"/>
    </contour>
    <contour>
      <point x="210" y="70" type="curve" smooth="yes"/>
      <point x="163" y="70"/>
      <point x="138" y="108"/>
      <point x="138" y="172" type="curve" smooth="yes"/>
      <point x="138" y="248"/>
      <point x="166" y="350"/>
      <point x="213" y="437" type="curve"/>
      <point x="258" y="361"/>
      <point x="280" y="272"/>
      <point x="280" y="171" type="curve" smooth="yes"/>
      <point x="280" y="107"/>
      <point x="248" y="70"/>
    </contour>
    <contour>
      <point x="420" y="507" type="curve" smooth="yes"/>
      <point x="387" y="507"/>
      <point x="371" y="528"/>
      <point x="371" y="569" type="curve" smooth="yes"/>
      <point x="371" y="582"/>
      <point x="372" y="591"/>
      <point x="373" y="598" type="curve"/>
      <point x="388" y="603"/>
      <point x="403" y="606"/>
      <point x="417" y="606" type="curve" smooth="yes"/>
      <point x="453" y="606"/>
      <point x="466" y="582"/>
      <point x="466" y="554" type="curve" smooth="yes"/>
      <point x="466" y="525"/>
      <point x="447" y="507"/>
    </contour>
  </outline>
</glyph>
<glyph name="uniA8BC" format="2">
  <advance width="891"/>
  <unicode hex="A8BC"/>
  <outline>
    <contour>
      <point x="679" y="-8" type="curve" smooth="yes"/>
      <point x="792" y="-8"/>
      <point x="842" y="90"/>
      <point x="842" y="315" type="curve" smooth="yes"/>
      <point x="842" y="548"/>
      <point x="761" y="674"/>
      <point x="613" y="674" type="curve" smooth="yes"/>
      <point x="536" y="674"/>
      <point x="478" y="641"/>
      <point x="439" y="575" type="curve"/>
      <point x="406" y="638"/>
      <point x="342" y="674"/>
      <point x="263" y="674" type="curve" smooth="yes"/>
      <point x="124" y="674"/>
      <point x="43" y="554"/>
      <point x="43" y="339" type="curve" smooth="yes"/>
      <point x="43" y="114"/>
      <point x="123" y="-2"/>
      <point x="280" y="-2" type="curve" smooth="yes"/>
      <point x="283" y="-2" type="line"/>
      <point x="277" y="82" type="line"/>
      <point x="169" y="82"/>
      <point x="119" y="165"/>
      <point x="119" y="340" type="curve" smooth="yes"/>
      <point x="119" y="508"/>
      <point x="172" y="595"/>
      <point x="273" y="595" type="curve" smooth="yes"/>
      <point x="349" y="595"/>
      <point x="398" y="538"/>
      <point x="398" y="445" type="curve" smooth="yes"/>
      <point x="398" y="0" type="line"/>
      <point x="473" y="0" type="line"/>
      <point x="473" y="439" type="line" smooth="yes"/>
      <point x="473" y="538"/>
      <point x="526" y="596"/>
      <point x="611" y="596" type="curve" smooth="yes"/>
      <point x="715" y="596"/>
      <point x="767" y="507"/>
      <point x="767" y="328" type="curve" smooth="yes"/>
      <point x="767" y="313"/>
      <point x="766" y="299"/>
      <point x="765" y="284" type="curve"/>
      <point x="720" y="304"/>
      <point x="703" y="308"/>
      <point x="670" y="308" type="curve" smooth="yes"/>
      <point x="587" y="308"/>
      <point x="537" y="252"/>
      <point x="537" y="157" type="curve" smooth="yes"/>
      <point x="537" y="57"/>
      <point x="589" y="-8"/>
    </contour>
    <contour>
      <point x="675" y="70" type="curve" smooth="yes"/>
      <point x="632" y="70"/>
      <point x="610" y="99"/>
      <point x="610" y="156" type="curve" smooth="yes"/>
      <point x="610" y="208"/>
      <point x="637" y="238"/>
      <point x="677" y="238" type="curve" smooth="yes"/>
      <point x="702" y="238"/>
      <point x="729" y="231"/>
      <point x="760" y="216" type="curve"/>
      <point x="756" y="121"/>
      <point x="732" y="70"/>
    </contour>
  </outline>
</glyph>
<glyph name="uniA8BE" format="2">
  <advance width="448"/>
  <unicode hex="A8BE"/>
  <outline>
    <contour>
      <point x="158" y="-10" type="line"/>
      <point x="310" y="41"/>
      <point x="420" y="206"/>
      <point x="420" y="409" type="curve" smooth="yes"/>
      <point x="420" y="581"/>
      <point x="347" y="675"/>
      <point x="211" y="675" type="curve" smooth="yes"/>
      <point x="95" y="675"/>
      <point x="25" y="592"/>
      <point x="25" y="481" type="curve" smooth="yes"/>
      <point x="25" y="370"/>
      <point x="99" y="288"/>
      <point x="218" y="288" type="curve" smooth="yes"/>
      <point x="263" y="288"/>
      <point x="303" y="297"/>
      <point x="340" y="316" type="curve"/>
      <point x="317" y="197"/>
      <point x="245" y="114"/>
      <point x="125" y="66" type="curve"/>
    </contour>
    <contour>
      <point x="218" y="362" type="curve" smooth="yes"/>
      <point x="143" y="362"/>
      <point x="100" y="406"/>
      <point x="100" y="481" type="curve" smooth="yes"/>
      <point x="100" y="557"/>
      <point x="142" y="601"/>
      <point x="215" y="601" type="curve" smooth="yes"/>
      <point x="309" y="601"/>
      <point x="349" y="541"/>
      <point x="349" y="401" type="curve"/>
      <point x="297" y="369"/>
      <point x="266" y="362"/>
    </contour>
  </outline>
</glyph>
<glyph name="uniA8BF" format="2">
  <advance width="567"/>
  <unicode hex="A8BF"/>
  <outline>
    <contour>
      <point x="297" y="-11" type="curve" smooth="yes"/>
      <point x="417" y="-11"/>
      <point x="512" y="74"/>
      <point x="512" y="184" type="curve" smooth="yes"/>
      <point x="512" y="312"/>
      <point x="442" y="377"/>
      <point x="322" y="377" type="curve" smooth="yes"/>
      <point x="316" y="377" type="line"/>
      <point x="316" y="303" type="line"/>
      <point x="320" y="303"/>
      <point x="324" y="304"/>
      <point x="328" y="304" type="curve" smooth="yes"/>
      <point x="400" y="304"/>
      <point x="438" y="263"/>
      <point x="438" y="195" type="curve" smooth="yes"/>
      <point x="438" y="113"/>
      <point x="375" y="71"/>
      <point x="296" y="71" type="curve" smooth="yes"/>
      <point x="216" y="71"/>
      <point x="155" y="119"/>
      <point x="155" y="202" type="curve" smooth="yes"/>
      <point x="155" y="345"/>
      <point x="275" y="429"/>
      <point x="433" y="530" type="curve" smooth="yes"/>
      <point x="530" y="592" type="line"/>
      <point x="505" y="666" type="line"/>
      <point x="129" y="666" type="line" smooth="yes"/>
      <point x="69" y="666"/>
      <point x="30" y="638"/>
      <point x="30" y="590" type="curve" smooth="yes"/>
      <point x="30" y="565"/>
      <point x="40" y="539"/>
      <point x="59" y="511" type="curve" smooth="yes"/>
      <point x="104" y="447" type="line"/>
      <point x="161" y="488" type="line"/>
      <point x="124" y="541" type="line" smooth="yes"/>
      <point x="116" y="553"/>
      <point x="112" y="563"/>
      <point x="112" y="570" type="curve" smooth="yes"/>
      <point x="112" y="585"/>
      <point x="123" y="592"/>
      <point x="139" y="592" type="curve" smooth="yes"/>
      <point x="400" y="592" type="line"/>
      <point x="325" y="544"/>
      <point x="269" y="505"/>
      <point x="233" y="476" type="curve" smooth="yes"/>
      <point x="141" y="402"/>
      <point x="82" y="313"/>
      <point x="82" y="199" type="curve" smooth="yes"/>
      <point x="82" y="77"/>
      <point x="179" y="-11"/>
    </contour>
  </outline>
</glyph>
<glyph name="uniA8C0" format="2">
  <advance width="449"/>
  <unicode hex="A8C0"/>
  <outline>
    <contour>
      <point x="200" y="-5" type="curve" smooth="yes"/>
      <point x="324" y="-5"/>
      <point x="417" y="158"/>
      <point x="417" y="355" type="curve" smooth="yes"/>
      <point x="417" y="581"/>
      <point x="343" y="675"/>
      <point x="211" y="675" type="curve" smooth="yes"/>
      <point x="95" y="675"/>
      <point x="25" y="592"/>
      <point x="25" y="481" type="curve" smooth="yes"/>
      <point x="25" y="370"/>
      <point x="99" y="288"/>
      <point x="218" y="288" type="curve" smooth="yes"/>
      <point x="263" y="288"/>
      <point x="307" y="299"/>
      <point x="349" y="321" type="curve"/>
      <point x="346" y="267"/>
      <point x="334" y="217"/>
      <point x="313" y="172" type="curve"/>
      <point x="268" y="217"/>
      <point x="235" y="234"/>
      <point x="186" y="234" type="curve" smooth="yes"/>
      <point x="117" y="234"/>
      <point x="72" y="186"/>
      <point x="72" y="114" type="curve" smooth="yes"/>
      <point x="72" y="45"/>
      <point x="122" y="-5"/>
    </contour>
    <contour>
      <point x="199" y="68" type="curve" smooth="yes"/>
      <point x="164" y="68"/>
      <point x="144" y="85"/>
      <point x="144" y="114" type="curve" smooth="yes"/>
      <point x="144" y="139"/>
      <point x="159" y="159"/>
      <point x="192" y="159" type="curve" smooth="yes"/>
      <point x="217" y="159"/>
      <point x="244" y="143"/>
      <point x="275" y="112" type="curve"/>
      <point x="251" y="83"/>
      <point x="226" y="68"/>
    </contour>
    <contour>
      <point x="218" y="362" type="curve" smooth="yes"/>
      <point x="142" y="362"/>
      <point x="99" y="408"/>
      <point x="99" y="481" type="curve" smooth="yes"/>
      <point x="99" y="557"/>
      <point x="142" y="601"/>
      <point x="215" y="601" type="curve" smooth="yes"/>
      <point x="302" y="601"/>
      <point x="343" y="542"/>
      <point x="350" y="402" type="curve"/>
      <point x="305" y="373"/>
      <point x="271" y="362"/>
    </contour>
  </outline>
</glyph>
<glyph name="uniA8C5" format="2">
  <unicode hex="A8C5"/>
  <outline>
    <contour>
      <point x="-152" y="708" type="curve" smooth="yes"/>
      <point x="-59" y="708"/>
      <point x="22" y="748"/>
      <point x="49" y="842" type="curve"/>
      <point x="-19" y="862" type="line"/>
      <point x="-34" y="805"/>
      <point x="-90" y="779"/>
      <point x="-155" y="779" type="curve" smooth="yes"/>
      <point x="-232" y="779"/>
      <point x="-276" y="814"/>
      <point x="-288" y="862" type="curve"/>
      <point x="-355" y="842" type="line"/>
      <point x="-333" y="749"/>
      <point x="-245" y="708"/>
    </contour>
    <contour>
      <point x="-156" y="835" type="curve" smooth="yes"/>
      <point x="-102" y="835"/>
      <point x="-64" y="871"/>
      <point x="-64" y="928" type="curve" smooth="yes"/>
      <point x="-64" y="982"/>
      <point x="-98" y="1021"/>
      <point x="-156" y="1021" type="curve" smooth="yes"/>
      <point x="-213" y="1021"/>
      <point x="-247" y="985"/>
      <point x="-247" y="928" type="curve" smooth="yes"/>
      <point x="-247" y="870"/>
      <point x="-211" y="835"/>
    </contour>
    <contour>
      <point x="-155" y="889" type="curve" smooth="yes"/>
      <point x="-180" y="889"/>
      <point x="-191" y="902"/>
      <point x="-191" y="929" type="curve" smooth="yes"/>
      <point x="-191" y="957"/>
      <point x="-180" y="968"/>
      <point x="-155" y="968" type="curve" smooth="yes"/>
      <point x="-129" y="968"/>
      <point x="-119" y="957"/>
      <point x="-119" y="929" type="curve" smooth="yes"/>
      <point x="-119" y="902"/>
      <point x="-131" y="889"/>
    </contour>
  </outline>
</glyph>
<glyph name="uniA8D1" format="2">
  <advance width="420"/>
  <unicode hex="A8D1"/>
  <outline>
    <contour>
      <point x="233" y="-13" type="curve"/>
      <point x="261" y="59" type="line"/>
      <point x="234" y="64"/>
      <point x="211" y="85"/>
      <point x="211" y="110" type="curve" smooth="yes"/>
      <point x="211" y="142"/>
      <point x="253" y="207"/>
      <point x="302" y="286" type="curve" smooth="yes"/>
      <point x="348" y="360"/>
      <point x="370" y="427"/>
      <point x="370" y="480" type="curve" smooth="yes"/>
      <point x="370" y="606"/>
      <point x="303" y="675"/>
      <point x="203" y="675" type="curve" smooth="yes"/>
      <point x="99" y="675"/>
      <point x="29" y="602"/>
      <point x="29" y="494" type="curve" smooth="yes"/>
      <point x="29" y="385"/>
      <point x="96" y="317"/>
      <point x="201" y="317" type="curve" smooth="yes"/>
      <point x="214" y="317"/>
      <point x="228" y="318"/>
      <point x="241" y="320" type="curve"/>
      <point x="227" y="295"/>
      <point x="214" y="276"/>
      <point x="202" y="258" type="curve" smooth="yes"/>
      <point x="160" y="195"/>
      <point x="132" y="138"/>
      <point x="132" y="100" type="curve" smooth="yes"/>
      <point x="132" y="43"/>
      <point x="166" y="5"/>
    </contour>
    <contour>
      <point x="198" y="388" type="curve" smooth="yes"/>
      <point x="137" y="388"/>
      <point x="103" y="423"/>
      <point x="103" y="494" type="curve" smooth="yes"/>
      <point x="103" y="561"/>
      <point x="137" y="596"/>
      <point x="200" y="596" type="curve" smooth="yes"/>
      <point x="265" y="596"/>
      <point x="299" y="558"/>
      <point x="299" y="485" type="curve" smooth="yes"/>
      <point x="299" y="460"/>
      <point x="293" y="431"/>
      <point x="281" y="400" type="curve"/>
      <point x="262" y="392"/>
      <point x="234" y="388"/>
    </contour>
  </outline>
</glyph>
<glyph name="uniA8D3" format="2">
  <advance width="493"/>
  <unicode hex="A8D3"/>
  <outline>
    <contour>
      <point x="245" y="-8" type="curve" smooth="yes"/>
      <point x="363" y="-8"/>
      <point x="455" y="71"/>
      <point x="455" y="195" type="curve" smooth="yes"/>
      <point x="455" y="295"/>
      <point x="411" y="357"/>
      <point x="328" y="376" type="curve"/>
      <point x="384" y="397"/>
      <point x="418" y="448"/>
      <point x="418" y="509" type="curve" smooth="yes"/>
      <point x="418" y="616"/>
      <point x="357" y="677"/>
      <point x="254" y="677" type="curve" smooth="yes"/>
      <point x="199" y="677"/>
      <point x="148" y="659"/>
      <point x="102" y="623" type="curve"/>
      <point x="148" y="557" type="line"/>
      <point x="182" y="584"/>
      <point x="218" y="597"/>
      <point x="257" y="597" type="curve" smooth="yes"/>
      <point x="317" y="597"/>
      <point x="345" y="565"/>
      <point x="345" y="509" type="curve" smooth="yes"/>
      <point x="345" y="448"/>
      <point x="295" y="407"/>
      <point x="212" y="407" type="curve"/>
      <point x="212" y="339" type="line"/>
      <point x="229" y="339" type="line" smooth="yes"/>
      <point x="330" y="339"/>
      <point x="383" y="289"/>
      <point x="383" y="198" type="curve" smooth="yes"/>
      <point x="383" y="119"/>
      <point x="321" y="70"/>
      <point x="242" y="70" type="curve" smooth="yes"/>
      <point x="153" y="70"/>
      <point x="107" y="106"/>
      <point x="107" y="169" type="curve" smooth="yes"/>
      <point x="107" y="201"/>
      <point x="129" y="228"/>
      <point x="164" y="229" type="curve"/>
      <point x="164" y="304" type="line"/>
      <point x="86" y="302"/>
      <point x="37" y="245"/>
      <point x="37" y="167" type="curve" smooth="yes"/>
      <point x="37" y="60"/>
      <point x="122" y="-8"/>
    </contour>
  </outline>
</glyph>
<glyph name="uniA8D7" format="2">
  <advance width="587"/>
  <unicode hex="A8D7"/>
  <outline>
    <contour>
      <point x="291" y="-10" type="curve" smooth="yes"/>
      <point x="327" y="-10"/>
      <point x="365" y="17"/>
      <point x="405" y="72" type="curve" smooth="yes"/>
      <point x="483" y="179"/>
      <point x="549" y="370"/>
      <point x="549" y="499" type="curve" smooth="yes"/>
      <point x="549" y="607"/>
      <point x="499" y="672"/>
      <point x="420" y="672" type="curve" smooth="yes"/>
      <point x="335" y="672"/>
      <point x="281" y="608"/>
      <point x="281" y="507" type="curve" smooth="yes"/>
      <point x="281" y="420"/>
      <point x="333" y="353"/>
      <point x="417" y="353" type="curve" smooth="yes"/>
      <point x="430" y="353"/>
      <point x="444" y="355"/>
      <point x="457" y="358" type="curve"/>
      <point x="429" y="253"/>
      <point x="385" y="157"/>
      <point x="345" y="109" type="curve" smooth="yes"/>
      <point x="325" y="85"/>
      <point x="307" y="73"/>
      <point x="291" y="73" type="curve" smooth="yes"/>
      <point x="268" y="73"/>
      <point x="242" y="95"/>
      <point x="213" y="138" type="curve" smooth="yes"/>
      <point x="156" y="223"/>
      <point x="110" y="377"/>
      <point x="110" y="481" type="curve" smooth="yes"/>
      <point x="110" y="545"/>
      <point x="121" y="614"/>
      <point x="140" y="651" type="curve"/>
      <point x="65" y="675" type="line"/>
      <point x="45" y="626"/>
      <point x="35" y="561"/>
      <point x="35" y="481" type="curve" smooth="yes"/>
      <point x="35" y="351"/>
      <point x="97" y="173"/>
      <point x="176" y="68" type="curve" smooth="yes"/>
      <point x="215" y="16"/>
      <point x="254" y="-10"/>
    </contour>
    <contour>
      <point x="420" y="424" type="curve" smooth="yes"/>
      <point x="374" y="424"/>
      <point x="351" y="452"/>
      <point x="351" y="509" type="curve" smooth="yes"/>
      <point x="351" y="568"/>
      <point x="371" y="596"/>
      <point x="418" y="596" type="curve" smooth="yes"/>
      <point x="458" y="596"/>
      <point x="479" y="565"/>
      <point x="479" y="505" type="curve" smooth="yes"/>
      <point x="479" y="484"/>
      <point x="477" y="463"/>
      <point x="474" y="440" type="curve"/>
      <point x="456" y="429"/>
      <point x="438" y="424"/>
    </contour>
  </outline>
</glyph>
<glyph name="uniA8D8" format="2">
  <advance width="589"/>
  <unicode hex="A8D8"/>
  <outline>
    <contour>
      <point x="519" y="-10" type="line"/>
      <point x="539" y="40"/>
      <point x="549" y="105"/>
      <point x="549" y="184" type="curve" smooth="yes"/>
      <point x="549" y="313"/>
      <point x="486" y="496"/>
      <point x="407" y="597" type="curve" smooth="yes"/>
      <point x="367" y="648"/>
      <point x="330" y="675"/>
      <point x="293" y="675" type="curve" smooth="yes"/>
      <point x="257" y="675"/>
      <point x="219" y="648"/>
      <point x="179" y="593" type="curve" smooth="yes"/>
      <point x="101" y="486"/>
      <point x="35" y="295"/>
      <point x="35" y="166" type="curve" smooth="yes"/>
      <point x="35" y="58"/>
      <point x="84" y="-7"/>
      <point x="164" y="-7" type="curve" smooth="yes"/>
      <point x="249" y="-7"/>
      <point x="303" y="58"/>
      <point x="303" y="158" type="curve" smooth="yes"/>
      <point x="303" y="245"/>
      <point x="250" y="312"/>
      <point x="167" y="312" type="curve" smooth="yes"/>
      <point x="153" y="312"/>
      <point x="140" y="310"/>
      <point x="127" y="306" type="curve"/>
      <point x="146" y="380"/>
      <point x="171" y="446"/>
      <point x="204" y="504" type="curve" smooth="yes"/>
      <point x="237" y="563"/>
      <point x="266" y="592"/>
      <point x="293" y="592" type="curve" smooth="yes"/>
      <point x="316" y="592"/>
      <point x="342" y="570"/>
      <point x="371" y="527" type="curve" smooth="yes"/>
      <point x="429" y="442"/>
      <point x="474" y="288"/>
      <point x="474" y="184" type="curve" smooth="yes"/>
      <point x="474" y="121"/>
      <point x="463" y="51"/>
      <point x="444" y="14" type="curve"/>
    </contour>
    <contour>
      <point x="166" y="69" type="curve" smooth="yes"/>
      <point x="125" y="69"/>
      <point x="105" y="99"/>
      <point x="105" y="160" type="curve" smooth="yes"/>
      <point x="105" y="185"/>
      <point x="107" y="206"/>
      <point x="110" y="225" type="curve"/>
      <point x="130" y="236"/>
      <point x="148" y="241"/>
      <point x="164" y="241" type="curve" smooth="yes"/>
      <point x="210" y="241"/>
      <point x="233" y="213"/>
      <point x="233" y="156" type="curve" smooth="yes"/>
      <point x="233" y="97"/>
      <point x="213" y="69"/>
    </contour>
  </outline>
</glyph>
<glyph name="uniA8D9" format="2">
  <advance width="507"/>
  <unicode hex="A8D9"/>
  <outline>
    <contour>
      <point x="250" y="-9" type="curve" smooth="yes"/>
      <point x="356" y="-9"/>
      <point x="451" y="74"/>
      <point x="451" y="184" type="curve" smooth="yes"/>
      <point x="451" y="251"/>
      <point x="426" y="299"/>
      <point x="378" y="326" type="curve"/>
      <point x="461" y="364" type="line"/>
      <point x="461" y="440" type="line"/>
      <point x="195" y="320" type="line"/>
      <point x="195" y="244" type="line"/>
      <point x="299" y="291" type="line"/>
      <point x="343" y="288"/>
      <point x="380" y="246"/>
      <point x="380" y="191" type="curve" smooth="yes"/>
      <point x="380" y="117"/>
      <point x="320" y="71"/>
      <point x="250" y="71" type="curve" smooth="yes"/>
      <point x="166" y="71"/>
      <point x="108" y="120"/>
      <point x="108" y="199" type="curve" smooth="yes"/>
      <point x="108" y="250"/>
      <point x="125" y="298"/>
      <point x="166" y="367" type="curve" smooth="yes"/>
      <point x="206" y="434"/>
      <point x="224" y="483"/>
      <point x="224" y="534" type="curve" smooth="yes"/>
      <point x="224" y="594"/>
      <point x="195" y="642"/>
      <point x="148" y="677" type="curve"/>
      <point x="98" y="623" type="line"/>
      <point x="136" y="596"/>
      <point x="155" y="567"/>
      <point x="155" y="534" type="curve" smooth="yes"/>
      <point x="155" y="489"/>
      <point x="140" y="449"/>
      <point x="97" y="376" type="curve" smooth="yes"/>
      <point x="56" y="306"/>
      <point x="38" y="252"/>
      <point x="38" y="195" type="curve" smooth="yes"/>
      <point x="38" y="70"/>
      <point x="134" y="-9"/>
    </contour>
  </outline>
</glyph>
<glyph name="uniA892A8B0" format="2">
  <advance width="916"/>
  <outline>
    <contour>
      <point x="427" y="-9" type="curve" smooth="yes"/>
      <point x="646" y="-9"/>
      <point x="807" y="6"/>
      <point x="862" y="187" type="curve"/>
      <point x="797" y="217" type="line"/>
      <point x="757" y="87"/>
      <point x="660" y="70"/>
      <point x="430" y="70" type="curve" smooth="yes"/>
      <point x="212" y="70"/>
      <point x="137" y="90"/>
      <point x="137" y="137" type="curve" smooth="yes"/>
      <point x="137" y="190"/>
      <point x="196" y="203"/>
      <point x="312" y="203" type="curve" smooth="yes"/>
      <point x="604" y="203" type="line" smooth="yes"/>
      <point x="766" y="203"/>
      <point x="867" y="279"/>
      <point x="867" y="499" type="curve" smooth="yes"/>
      <point x="867" y="592"/>
      <point x="826" y="672"/>
      <point x="727" y="672" type="curve" smooth="yes"/>
      <point x="662" y="672"/>
      <point x="625" y="646"/>
      <point x="604" y="592" type="curve"/>
      <point x="587" y="640"/>
      <point x="546" y="672"/>
      <point x="486" y="672" type="curve" smooth="yes"/>
      <point x="424" y="672"/>
      <point x="383" y="639"/>
      <point x="367" y="592" type="curve"/>
      <point x="346" y="646"/>
      <point x="292" y="672"/>
      <point x="233" y="672" type="curve" smooth="yes"/>
      <point x="118" y="672"/>
      <point x="49" y="591"/>
      <point x="49" y="490" type="curve" smooth="yes"/>
      <point x="49" y="385"/>
      <point x="89" y="310"/>
      <point x="167" y="310" type="curve" smooth="yes"/>
      <point x="227" y="310"/>
      <point x="279" y="348"/>
      <point x="279" y="437" type="curve" smooth="yes"/>
      <point x="279" y="495"/>
      <point x="246" y="545"/>
      <point x="176" y="545" type="curve" smooth="yes"/>
      <point x="161" y="545"/>
      <point x="144" y="542"/>
      <point x="130" y="536" type="curve"/>
      <point x="138" y="569"/>
      <point x="172" y="596"/>
      <point x="231" y="596" type="curve" smooth="yes"/>
      <point x="298" y="596"/>
      <point x="334" y="564"/>
      <point x="334" y="500" type="curve" smooth="yes"/>
      <point x="334" y="322" type="line"/>
      <point x="403" y="322" type="line"/>
      <point x="403" y="500" type="line" smooth="yes"/>
      <point x="403" y="563"/>
      <point x="423" y="596"/>
      <point x="485" y="596" type="curve" smooth="yes"/>
      <point x="547" y="596"/>
      <point x="568" y="563"/>
      <point x="568" y="500" type="curve" smooth="yes"/>
      <point x="568" y="322" type="line"/>
      <point x="637" y="322" type="line"/>
      <point x="637" y="500" type="line" smooth="yes"/>
      <point x="637" y="564"/>
      <point x="657" y="596"/>
      <point x="716" y="596" type="curve" smooth="yes"/>
      <point x="769" y="596"/>
      <point x="792" y="557"/>
      <point x="792" y="488" type="curve" smooth="yes"/>
      <point x="792" y="314"/>
      <point x="714" y="267"/>
      <point x="607" y="267" type="curve" smooth="yes"/>
      <point x="298" y="267" type="line" smooth="yes"/>
      <point x="112" y="267"/>
      <point x="62" y="216"/>
      <point x="62" y="130" type="curve" smooth="yes"/>
      <point x="62" y="20"/>
      <point x="189" y="-9"/>
    </contour>
    <contour>
      <point x="167" y="386" type="curve" smooth="yes"/>
      <point x="142" y="386"/>
      <point x="125" y="412"/>
      <point x="123" y="465" type="curve"/>
      <point x="141" y="475"/>
      <point x="152" y="479"/>
      <point x="171" y="479" type="curve" smooth="yes"/>
      <point x="195" y="479"/>
      <point x="208" y="461"/>
      <point x="208" y="437" type="curve" smooth="yes"/>
      <point x="208" y="402"/>
      <point x="191" y="386"/>
    </contour>
  </outline>
</glyph>
<glyph name="uniA8A1A8AB" format="2">
  <advance width="845"/>
  <outline>
    <contour>
      <point x="605" y="-2" type="curve"/>
      <point x="600" y="82" type="line"/>
      <point x="470" y="82"/>
      <point x="402" y="170"/>
      <point x="402" y="340" type="curve" smooth="yes"/>
      <point x="402" y="508"/>
      <point x="460" y="595"/>
      <point x="575" y="595" type="curve" smooth="yes"/>
      <point x="659" y="595"/>
      <point x="702" y="544"/>
      <point x="702" y="443" type="curve" smooth="yes"/>
      <point x="702" y="0" type="line"/>
      <point x="780" y="0" type="line"/>
      <point x="780" y="449" type="line" smooth="yes"/>
      <point x="780" y="594"/>
      <point x="705" y="674"/>
      <point x="574" y="674" type="curve" smooth="yes"/>
      <point x="412" y="674"/>
      <point x="326" y="557"/>
      <point x="326" y="339" type="curve" smooth="yes"/>
      <point x="326" y="128"/>
      <point x="413" y="-2"/>
    </contour>
    <contour>
      <point x="216" y="-102" type="curve" smooth="yes"/>
      <point x="163" y="-102"/>
      <point x="135" y="-61"/>
      <point x="127" y="24" type="curve"/>
      <point x="151" y="43"/>
      <point x="179" y="52"/>
      <point x="212" y="52" type="curve" smooth="yes"/>
      <point x="256" y="52"/>
      <point x="281" y="22"/>
      <point x="281" y="-23" type="curve" smooth="yes"/>
      <point x="281" y="-75"/>
      <point x="255" y="-102"/>
    </contour>
    <contour>
      <point x="215" y="-180" type="curve" smooth="yes"/>
      <point x="300" y="-180"/>
      <point x="350" y="-119"/>
      <point x="350" y="-23" type="curve" smooth="yes"/>
      <point x="350" y="68"/>
      <point x="297" y="130"/>
      <point x="217" y="130" type="curve" smooth="yes"/>
      <point x="176" y="130"/>
      <point x="143" y="121"/>
      <point x="116" y="103" type="curve"/>
      <point x="116" y="133" type="line" smooth="yes"/>
      <point x="116" y="258"/>
      <point x="153" y="346"/>
      <point x="220" y="391" type="curve"/>
      <point x="165" y="448" type="line"/>
      <point x="90" y="387"/>
      <point x="49" y="279"/>
      <point x="49" y="133" type="curve" smooth="yes"/>
      <point x="49" y="-71"/>
      <point x="104" y="-180"/>
    </contour>
  </outline>
</glyph>
<glyph name="uniA8AFA8AC" format="2">
  <advance width="967"/>
  <outline>
    <contour>
      <point x="390" y="-15" type="curve"/>
      <point x="442" y="41" type="line"/>
      <point x="365" y="111"/>
      <point x="307" y="223"/>
      <point x="307" y="353" type="curve" smooth="yes"/>
      <point x="307" y="508"/>
      <point x="374" y="595"/>
      <point x="491" y="595" type="curve" smooth="yes"/>
      <point x="570" y="595"/>
      <point x="616" y="548"/>
      <point x="616" y="471" type="curve" smooth="yes"/>
      <point x="616" y="447"/>
      <point x="611" y="425"/>
      <point x="602" y="404" type="curve"/>
      <point x="578" y="446"/>
      <point x="540" y="474"/>
      <point x="491" y="474" type="curve" smooth="yes"/>
      <point x="428" y="474"/>
      <point x="384" y="433"/>
      <point x="384" y="372" type="curve" smooth="yes"/>
      <point x="384" y="302"/>
      <point x="429" y="260"/>
      <point x="503" y="260" type="curve" smooth="yes"/>
      <point x="527" y="260"/>
      <point x="548" y="263"/>
      <point x="565" y="270" type="curve"/>
      <point x="565" y="253"/>
      <point x="563" y="237"/>
      <point x="563" y="220" type="curve" smooth="yes"/>
      <point x="563" y="67"/>
      <point x="620" y="-8"/>
      <point x="736" y="-8" type="curve" smooth="yes"/>
      <point x="852" y="-8"/>
      <point x="920" y="114"/>
      <point x="920" y="324" type="curve" smooth="yes"/>
      <point x="920" y="462"/>
      <point x="878" y="578"/>
      <point x="785" y="678" type="curve"/>
      <point x="728" y="629" type="line"/>
      <point x="765" y="586"/>
      <point x="845" y="496"/>
      <point x="845" y="324" type="curve" smooth="yes"/>
      <point x="845" y="159"/>
      <point x="803" y="71"/>
      <point x="731" y="71" type="curve" smooth="yes"/>
      <point x="653" y="71"/>
      <point x="631" y="121"/>
      <point x="631" y="275" type="curve" smooth="yes"/>
      <point x="631" y="289"/>
      <point x="632" y="306"/>
      <point x="633" y="319" type="curve"/>
      <point x="669" y="358"/>
      <point x="687" y="407"/>
      <point x="687" y="467" type="curve" smooth="yes"/>
      <point x="687" y="599"/>
      <point x="606" y="674"/>
      <point x="485" y="674" type="curve" smooth="yes"/>
      <point x="331" y="674"/>
      <point x="233" y="548"/>
      <point x="233" y="353" type="curve" smooth="yes"/>
      <point x="233" y="199"/>
      <point x="310" y="55"/>
    </contour>
    <contour>
      <point x="106" y="-89" type="curve" smooth="yes"/>
      <point x="84" y="-89"/>
      <point x="69" y="-74"/>
      <point x="69" y="-52" type="curve" smooth="yes"/>
      <point x="69" y="-32"/>
      <point x="83" y="-15"/>
      <point x="109" y="-15" type="curve" smooth="yes"/>
      <point x="124" y="-15"/>
      <point x="142" y="-19"/>
      <point x="162" y="-27" type="curve"/>
      <point x="150" y="-72"/>
      <point x="133" y="-89"/>
    </contour>
    <contour>
      <point x="106" y="-159" type="curve" smooth="yes"/>
      <point x="168" y="-159"/>
      <point x="208" y="-128"/>
      <point x="227" y="-62" type="curve"/>
      <point x="277" y="-94" type="line" smooth="yes"/>
      <point x="344" y="-137"/>
      <point x="389" y="-156"/>
      <point x="428" y="-156" type="curve" smooth="yes"/>
      <point x="507" y="-156"/>
      <point x="571" y="-114"/>
      <point x="604" y="-20" type="curve"/>
      <point x="541" y="3" type="line"/>
      <point x="518" y="-52"/>
      <point x="485" y="-79"/>
      <point x="427" y="-79" type="curve" smooth="yes"/>
      <point x="381" y="-79"/>
      <point x="341" y="-60"/>
      <point x="287" y="-26" type="curve" smooth="yes"/>
      <point x="243" y="2" type="line"/>
      <point x="244" y="9"/>
      <point x="244" y="24"/>
      <point x="244" y="31" type="curve" smooth="yes"/>
      <point x="244" y="188"/>
      <point x="157" y="295"/>
      <point x="121" y="313" type="curve"/>
      <point x="82" y="253" type="line"/>
      <point x="115" y="234"/>
      <point x="174" y="143"/>
      <point x="177" y="39" type="curve"/>
      <point x="152" y="50"/>
      <point x="130" y="56"/>
      <point x="111" y="56" type="curve" smooth="yes"/>
      <point x="42" y="56"/>
      <point x="0" y="13"/>
      <point x="0" y="-52" type="curve" smooth="yes"/>
      <point x="0" y="-114"/>
      <point x="44" y="-159"/>
    </contour>
    <contour>
      <point x="500" y="334" type="curve" smooth="yes"/>
      <point x="472" y="334"/>
      <point x="458" y="346"/>
      <point x="458" y="370" type="curve" smooth="yes"/>
      <point x="458" y="385"/>
      <point x="469" y="401"/>
      <point x="492" y="401" type="curve" smooth="yes"/>
      <point x="522" y="401"/>
      <point x="542" y="384"/>
      <point x="552" y="349" type="curve"/>
      <point x="534" y="339"/>
      <point x="517" y="334"/>
    </contour>
  </outline>
</glyph>
